<svg width="180" height="85" viewBox="0 0 180 85" fill="none" xmlns="http://www.w3.org/2000/svg">
<rect x="1.5" y="1.5" width="177" height="82" fill="#FFFF00"/>
<rect x="1.5" y="1.5" width="177" height="82" stroke="black" stroke-width="3"/>
<path d="M25.9375 24.457C26.224 23.2201 26.7643 22.25 27.5586 21.5469C28.3659 20.8307 29.4076 20.4727 30.6836 20.4727C32.0247 20.4727 33.125 20.8568 33.9844 21.625C34.8438 22.3932 35.2734 23.4479 35.2734 24.7891C35.2734 26.2995 34.4922 27.8034 32.9297 29.3008C32.7865 29.431 32.487 29.7174 32.0312 30.1602C31.5755 30.6029 31.276 30.8958 31.1328 31.0391C31.0026 31.1693 30.7682 31.4102 30.4297 31.7617C30.1042 32.1003 29.8698 32.3737 29.7266 32.582C29.5833 32.7773 29.4141 33.0182 29.2188 33.3047C29.0365 33.5911 28.8802 33.8776 28.75 34.1641H35.2344V36H26.0547C26.0547 35.4271 26.1523 34.8542 26.3477 34.2812C26.556 33.7083 26.7904 33.2005 27.0508 32.7578C27.3112 32.3151 27.6888 31.8138 28.1836 31.2539C28.6784 30.681 29.0951 30.2253 29.4336 29.8867C29.7852 29.5352 30.2669 29.0729 30.8789 28.5C31.0221 28.3698 31.1263 28.2721 31.1914 28.207C32.3763 27.0872 32.9688 25.9349 32.9688 24.75C32.9688 23.9818 32.7604 23.3828 32.3438 22.9531C31.9271 22.5234 31.3672 22.3086 30.6641 22.3086C29.9349 22.3086 29.3294 22.5495 28.8477 23.0312C28.3789 23.513 28.0404 24.1771 27.832 25.0234L25.9375 24.457ZM39.6484 28.4219C39.6484 29.6068 39.7266 30.6354 39.8828 31.5078C40.0391 32.3802 40.319 33.1029 40.7227 33.6758C41.1393 34.2357 41.6602 34.5156 42.2852 34.5156C42.7669 34.5156 43.1771 34.3529 43.5156 34.0273C43.8672 33.6888 44.1341 33.2201 44.3164 32.6211C44.5117 32.0221 44.6484 31.3841 44.7266 30.707C44.8177 30.0169 44.8633 29.2552 44.8633 28.4219C44.8633 27.5625 44.8177 26.7747 44.7266 26.0586C44.6354 25.3424 44.4857 24.6979 44.2773 24.125C44.082 23.5521 43.8086 23.1094 43.457 22.7969C43.1185 22.4714 42.7148 22.3086 42.2461 22.3086C41.6341 22.3086 41.1263 22.5951 40.7227 23.168C40.319 23.7279 40.0391 24.4505 39.8828 25.3359C39.7266 26.2083 39.6484 27.237 39.6484 28.4219ZM37.3438 28.4219C37.3438 26.9505 37.487 25.6745 37.7734 24.5938C38.0599 23.513 38.4505 22.6862 38.9453 22.1133C39.4401 21.5404 39.9609 21.1237 40.5078 20.8633C41.0547 20.6029 41.6341 20.4727 42.2461 20.4727C43.8086 20.4727 45.0195 21.1693 45.8789 22.5625C46.7383 23.9427 47.168 25.8958 47.168 28.4219C47.168 30.8307 46.7513 32.7578 45.918 34.2031C45.0977 35.6354 43.8867 36.3516 42.2852 36.3516C41.6732 36.3516 41.0938 36.2214 40.5469 35.9609C40 35.7005 39.4792 35.2839 38.9844 34.7109C38.4896 34.138 38.0924 33.3112 37.793 32.2305C37.4935 31.1497 37.3438 29.8802 37.3438 28.4219ZM49.8047 25.0039V23.3047H50.4688C52.513 23.3047 53.5352 22.569 53.5352 21.0977V20.6875H55.4688V36.1758H53.1836V25.0039H49.8047ZM61.3086 25.0039V23.3047H61.9727C64.0169 23.3047 65.0391 22.569 65.0391 21.0977V20.6875H66.9727V36.1758H64.6875V25.0039H61.3086ZM75.7617 37.25V31.2734H77.9102V35.3359H88.8086V37.25H75.7617ZM80.7227 26.4688V24.6719H86.1133V22.8164H80.7227V20.9609H86.1133V19.418H88.2812V32.7188H86.1133V26.4688H80.7227ZM73.5938 30.0625V20.3359H75.7422V28.1875H76.3477C78.9648 28.1875 81.6341 28.0312 84.3555 27.7188V29.4961C81.2565 29.8737 78.0143 30.0625 74.6289 30.0625H73.5938ZM109.336 37.7773V19.418H111.543V26.9961H114.492V29.0859H111.543V37.7773H109.336ZM96.7773 33.8125C98.9779 32.3932 100.71 30.707 101.973 28.7539C103.236 26.8008 103.88 24.9062 103.906 23.0703H97.7734V21.1172H106.191C106.191 26.9245 103.561 31.6185 98.3008 35.1992L96.7773 33.8125ZM116.133 31.7617V29.8672H134.004V31.7617H126.211V37.7969H124.004V31.7617H116.133ZM117.051 26.5469C117.884 26.2865 118.691 25.9674 119.473 25.5898C120.267 25.1992 121.016 24.75 121.719 24.2422C122.435 23.7344 123.008 23.1615 123.438 22.5234C123.867 21.8724 124.082 21.2148 124.082 20.5508V19.6328H126.211V20.5508C126.211 21.4102 126.595 22.263 127.363 23.1094C128.132 23.9427 129.017 24.6328 130.02 25.1797C131.035 25.7266 132.096 26.1758 133.203 26.5273L132.109 28.1289C130.781 27.7253 129.44 27.0938 128.086 26.2344C126.732 25.362 125.749 24.4635 125.137 23.5391C124.564 24.4635 123.594 25.3685 122.227 26.2539C120.859 27.1263 119.499 27.7578 118.145 28.1484L117.051 26.5469ZM135.82 36.0391V34.1445H143.77V30.4531H145.996V34.1445H153.691V36.0391H135.82ZM138.438 31.293V25.0039H149.062V22.4062H138.32V20.5117H151.211V26.8203H140.586V29.418H151.504V31.293H138.438ZM40.2734 65.7773V47.418H42.3633V65.7773H40.2734ZM32.7344 56.3242V54.2344H36.3086V47.9258H38.2812V64.957H36.3086V56.3242H32.7344ZM27.4805 61.8125V49.1953H34.5703V51.0703H29.6484V59.957H29.9219C31.3281 59.957 33.1706 59.8333 35.4492 59.5859V61.3438C32.7669 61.6562 30.293 61.8125 28.0273 61.8125H27.4805ZM59.8828 65.7773V47.418H62.0898V65.7773H59.8828ZM46.0352 59.918V58.082H48.2227C53.0924 58.082 56.8099 57.9258 59.375 57.6133V59.4297C57.9036 59.5859 56.0026 59.7096 53.6719 59.8008V65.4844H51.4844V59.8789C50.625 59.9049 49.5312 59.918 48.2031 59.918H46.0352ZM47.7148 56.0898V48.1016H49.8242V50.3672H55.4297V48.1016H57.5391V56.0898H47.7148ZM49.8242 54.3516H55.4297V52.0469H49.8242V54.3516ZM67.3633 64.4688C68.1966 64.0391 68.9518 63.4661 69.6289 62.75C70.319 62.0208 70.6641 61.3438 70.6641 60.7188V60.0938H72.8125V60.582C72.8125 61.1549 73.0599 61.7539 73.5547 62.3789C74.0625 62.9909 74.5898 63.4596 75.1367 63.7852C75.6966 63.4336 76.224 62.9518 76.7188 62.3398C77.2135 61.7279 77.4609 61.1419 77.4609 60.582V60.0938H79.5898V60.6992C79.5898 61.3503 79.9219 62.0404 80.5859 62.7695C81.263 63.4857 82.0312 64.0586 82.8906 64.4883L81.7188 65.8359C81.1068 65.5234 80.5078 65.1003 79.9219 64.5664C79.3359 64.0326 78.8802 63.5117 78.5547 63.0039C78.2422 63.4987 77.7409 64.0326 77.0508 64.6055C76.3737 65.1784 75.7357 65.582 75.1367 65.8164C74.5638 65.6081 73.9323 65.2109 73.2422 64.625C72.5651 64.0391 72.0638 63.4987 71.7383 63.0039C71.4128 63.4987 70.9701 64.0065 70.4102 64.5273C69.8633 65.0482 69.2708 65.4844 68.6328 65.8359L67.3633 64.4688ZM76.2109 59.4688V47.6133H78.0469V53.082H79.8828V47.418H81.875V59.8008H79.8828V54.9766H78.0469V59.4688H76.2109ZM67.8125 49.6836V48.0039H73.6914V49.6836H67.8125ZM65.7031 52.6328V50.9531H75.3516V52.6328H65.7031ZM66.2891 56.4023C66.2891 55.5169 66.7188 54.8203 67.5781 54.3125C68.4375 53.7917 69.4857 53.5312 70.7227 53.5312C71.9727 53.5312 73.0208 53.7852 73.8672 54.293C74.7135 54.8008 75.1367 55.5039 75.1367 56.4023C75.1367 57.2878 74.7135 57.9909 73.8672 58.5117C73.0208 59.0195 71.9727 59.2734 70.7227 59.2734C69.4727 59.2734 68.418 59.0195 67.5586 58.5117C66.7122 57.9909 66.2891 57.2878 66.2891 56.4023ZM68.457 56.4023C68.457 56.806 68.6719 57.125 69.1016 57.3594C69.5312 57.5938 70.0716 57.7109 70.7227 57.7109C71.3477 57.7109 71.8815 57.5938 72.3242 57.3594C72.7669 57.125 72.9883 56.806 72.9883 56.4023C72.9883 55.9857 72.7669 55.6667 72.3242 55.4453C71.8945 55.2109 71.3607 55.0938 70.7227 55.0938C70.0716 55.0938 69.5312 55.2109 69.1016 55.4453C68.6719 55.6797 68.457 55.9987 68.457 56.4023ZM97.7539 65.7773V47.418H99.9414V54.7031H102.871V56.8125H99.9414V65.7773H97.7539ZM86.5234 61.7148V49.1367H95.0391V51.0117H88.6523V59.8203H89.082C91.569 59.8203 94.0495 59.6576 96.5234 59.332V61.0898C93.6589 61.5065 90.5599 61.7148 87.2266 61.7148H86.5234ZM105.859 64V61.207H108.867V64H105.859Z" fill="#010101"/>
</svg>
