<svg width="264" height="85" viewBox="0 0 264 85" fill="none" xmlns="http://www.w3.org/2000/svg">
<rect x="1.5" y="1.5" width="261" height="82" fill="#FFFF00"/>
<rect x="1.5" y="1.5" width="261" height="82" stroke="black" stroke-width="3"/>
<path d="M29.6484 37.4453V32.6406H31.8164V35.6094H42.7539V37.4453H29.6484ZM37.168 30.2969V28.5H40.0977V25.9219H36.9531V24.125H40.0977V19.418H42.2656V33.4414H40.0977V30.2969H37.168ZM28.8672 21.6836V19.9648H35.3516V21.6836H28.8672ZM26.4844 24.75V23.0508H37.1875V24.75H26.4844ZM27.1875 28.7148C27.1875 27.7773 27.6562 27.0417 28.5938 26.5078C29.5443 25.974 30.7096 25.707 32.0898 25.707C33.4701 25.707 34.6289 25.974 35.5664 26.5078C36.5039 27.0417 36.9727 27.7773 36.9727 28.7148C36.9727 29.6523 36.5039 30.388 35.5664 30.9219C34.6419 31.4557 33.4831 31.7227 32.0898 31.7227C30.6966 31.7227 29.5312 31.4557 28.5938 30.9219C27.6562 30.388 27.1875 29.6523 27.1875 28.7148ZM29.3945 28.7148C29.3945 29.1576 29.6549 29.5026 30.1758 29.75C30.6966 29.9974 31.3346 30.1211 32.0898 30.1211C32.819 30.1211 33.444 30.0039 33.9648 29.7695C34.4987 29.5221 34.7656 29.1706 34.7656 28.7148C34.7656 28.2591 34.5052 27.9141 33.9844 27.6797C33.4766 27.4323 32.8451 27.3086 32.0898 27.3086C31.3216 27.3086 30.6771 27.4323 30.1562 27.6797C29.6484 27.9271 29.3945 28.2721 29.3945 28.7148ZM55.918 36.957V19.9258H57.8711V26.8203H59.9805V19.418H62.0703V37.7773H59.9805V28.8906H57.8711V36.957H55.918ZM45.4297 33.5977C45.9115 33.194 46.3607 32.7448 46.7773 32.25C47.194 31.7552 47.6172 31.1497 48.0469 30.4336C48.4896 29.7174 48.8411 28.8906 49.1016 27.9531C49.362 27.0156 49.4922 26.0326 49.4922 25.0039V23.1484H46.3281V21.2148H54.8633V23.1484H51.6992V24.9648C51.6992 25.8633 51.8294 26.7552 52.0898 27.6406C52.3503 28.526 52.6888 29.3203 53.1055 30.0234C53.5352 30.7135 53.9453 31.306 54.3359 31.8008C54.7266 32.2956 55.1302 32.7383 55.5469 33.1289L53.9844 34.3789C53.3984 33.819 52.7799 33.0768 52.1289 32.1523C51.4909 31.2148 51.0026 30.3294 50.6641 29.4961C50.4036 30.3685 49.9089 31.3385 49.1797 32.4062C48.4505 33.474 47.7409 34.2878 47.0508 34.8477L45.4297 33.5977ZM70.1172 35.7852V33.8906H77.9492V29.3789H80.1758V33.8906H87.9883V35.7852H70.1172ZM72.7148 30.4922V20.4727H74.8633V23.6367H83.3398V20.4727H85.5078V30.4922H72.7148ZM74.8633 28.6172H83.3398V25.4336H74.8633V28.6172ZM93.2617 37.5234V32.7383H104.141V31.293H93.1641V29.5352H106.289V34.2617H95.4102V35.7656H106.719V37.5234H93.2617ZM100.293 25.5117V23.5781H104.102V19.418H106.289V28.8711H104.102V25.5117H100.293ZM90.4102 27.6406C91.6732 27.3802 92.8906 27.0352 94.0625 26.6055C95.2344 26.1628 96.1068 25.668 96.6797 25.1211H91.0742V23.4609H98.0664C98.4831 22.849 98.724 22.3542 98.7891 21.9766H91.6797V20.1797H101.133C101.107 21.3385 100.872 22.4062 100.43 23.3828C99.987 24.3464 99.4336 25.1471 98.7695 25.7852C98.1185 26.4232 97.3438 26.9896 96.4453 27.4844C95.5599 27.9661 94.7005 28.3372 93.8672 28.5977C93.0469 28.8451 92.207 29.0339 91.3477 29.1641L90.4102 27.6406ZM114.375 35.8633V33.9883H132.246V35.8633H114.375ZM116.953 31.2344V20.8633H130.02V22.7383H119.199V25.1602H129.883V26.9375H119.199V29.3398H130.176V31.2344H116.953ZM148.555 37.7773V19.418H150.645V37.7773H148.555ZM142.578 28.5V26.4688H144.688V19.9258H146.66V36.957H144.688V28.5H142.578ZM135.312 34.4375V26.7812H139.844V22.8555H135.215V21.0195H141.914V28.5977H137.363V32.6016H137.754C139.316 32.6016 141.048 32.4909 142.949 32.2695V33.9883C140.436 34.2878 138.118 34.4375 135.996 34.4375H135.312ZM167.793 37.7773V19.418H170V37.7773H167.793ZM154.98 27.5234C154.98 25.401 155.397 23.6823 156.23 22.3672C157.077 21.0391 158.236 20.375 159.707 20.375C161.178 20.375 162.331 21.0391 163.164 22.3672C163.997 23.6823 164.414 25.401 164.414 27.5234C164.414 29.6589 163.997 31.3906 163.164 32.7188C162.344 34.0339 161.191 34.6914 159.707 34.6914C158.223 34.6914 157.064 34.0339 156.23 32.7188C155.397 31.3906 154.98 29.6589 154.98 27.5234ZM157.188 27.5234C157.188 29.0469 157.396 30.2969 157.812 31.2734C158.229 32.25 158.861 32.7383 159.707 32.7383C160.553 32.7383 161.178 32.25 161.582 31.2734C161.999 30.2839 162.207 29.0339 162.207 27.5234C162.207 26.5339 162.129 25.6615 161.973 24.9062C161.816 24.151 161.543 23.5326 161.152 23.0508C160.775 22.556 160.293 22.3086 159.707 22.3086C159.264 22.3086 158.874 22.4518 158.535 22.7383C158.21 23.0117 157.949 23.3958 157.754 23.8906C157.572 24.3854 157.428 24.9388 157.324 25.5508C157.233 26.1497 157.188 26.8073 157.188 27.5234ZM182.266 27.2891V25.2188H187.441V19.418H189.648V37.7773H187.441V27.2891H182.266ZM175.293 33.6953V20.8047H177.441V31.7422H178.047C180.456 31.7422 182.956 31.5924 185.547 31.293V33.1289C182.526 33.5065 179.466 33.6953 176.367 33.6953H175.293ZM193.125 36.0391V34.1445H201.074V30.4531H203.301V34.1445H210.996V36.0391H193.125ZM195.742 31.293V25.0039H206.367V22.4062H195.625V20.5117H208.516V26.8203H197.891V29.418H208.809V31.293H195.742ZM222.402 27.9727V25.9219H226.777V19.418H228.984V37.7773H226.777V27.9727H222.402ZM212.5 33.9688C213.164 33.4609 213.776 32.8945 214.336 32.2695C214.896 31.6445 215.436 30.9089 215.957 30.0625C216.478 29.2031 216.888 28.2135 217.188 27.0938C217.487 25.974 217.637 24.7891 217.637 23.5391V20.4531H219.766V23.4609C219.766 25.6354 220.241 27.6081 221.191 29.3789C222.142 31.1497 223.242 32.5104 224.492 33.4609L222.93 34.7891C222.174 34.2292 221.361 33.3438 220.488 32.1328C219.616 30.9219 219.023 29.7956 218.711 28.7539C218.398 29.8607 217.793 31.0391 216.895 32.2891C215.996 33.526 215.091 34.5352 214.18 35.3164L212.5 33.9688ZM28.7109 62.3594V60.6602H41.4844V66.0312H39.3164V62.3594H28.7109ZM39.2969 59.8008V47.418H41.4844V53.1406H43.9258V55.1133H41.4844V59.8008H39.2969ZM28.6328 49.625V47.9258H35.4297V49.625H28.6328ZM26.0938 52.5547V50.875H37.3828V52.5547H26.0938ZM26.8555 56.2656C26.8555 55.3672 27.3503 54.6706 28.3398 54.1758C29.3294 53.681 30.5534 53.4336 32.0117 53.4336C33.457 53.4336 34.6745 53.681 35.6641 54.1758C36.6667 54.6706 37.168 55.3672 37.168 56.2656C37.168 57.1641 36.6732 57.8607 35.6836 58.3555C34.707 58.8503 33.4831 59.0977 32.0117 59.0977C30.5534 59.0977 29.3294 58.8503 28.3398 58.3555C27.3503 57.8607 26.8555 57.1641 26.8555 56.2656ZM29.1016 56.2656C29.1016 56.6823 29.375 57.0013 29.9219 57.2227C30.4818 57.444 31.1784 57.5547 32.0117 57.5547C32.806 57.5547 33.4831 57.444 34.043 57.2227C34.6159 57.0013 34.9023 56.6823 34.9023 56.2656C34.9023 55.8359 34.6224 55.5169 34.0625 55.3086C33.5156 55.0872 32.832 54.9766 32.0117 54.9766C31.1784 54.9766 30.4818 55.0872 29.9219 55.3086C29.375 55.5169 29.1016 55.8359 29.1016 56.2656ZM48.5938 62.2422C48.5938 61.1484 49.2188 60.2956 50.4688 59.6836C51.7188 59.0716 53.3724 58.7656 55.4297 58.7656C57.5 58.7656 59.1602 59.0716 60.4102 59.6836C61.6732 60.2826 62.3047 61.1354 62.3047 62.2422C62.3047 63.3359 61.6667 64.1888 60.3906 64.8008C59.1276 65.4128 57.474 65.7188 55.4297 65.7188C53.3594 65.7188 51.6992 65.4128 50.4492 64.8008C49.2122 64.2018 48.5938 63.349 48.5938 62.2422ZM50.957 62.2422C50.957 62.7891 51.3477 63.2122 52.1289 63.5117C52.9102 63.7982 54.0104 63.9414 55.4297 63.9414C56.7839 63.9414 57.8776 63.7917 58.7109 63.4922C59.5443 63.1927 59.9609 62.776 59.9609 62.2422C59.9609 61.6693 59.5573 61.2461 58.75 60.9727C57.9427 60.6862 56.8359 60.543 55.4297 60.543C54.0104 60.543 52.9102 60.6862 52.1289 60.9727C51.3477 61.2591 50.957 61.6823 50.957 62.2422ZM55.8789 58.1016V47.6133H57.793V52.1055H59.9219V47.418H61.9727V58.8633H59.9219V54.0391H57.793V58.1016H55.8789ZM45.2539 56.8516C46.4779 56.0312 47.5195 55.0091 48.3789 53.7852C49.2383 52.5612 49.668 51.2721 49.668 49.918V48.1016H51.7969V49.8789C51.7969 50.5169 51.9336 51.168 52.207 51.832C52.4805 52.4961 52.8255 53.0951 53.2422 53.6289C53.6719 54.1628 54.0951 54.625 54.5117 55.0156C54.9284 55.4062 55.332 55.7383 55.7227 56.0117L54.3555 57.3984C53.7435 56.9818 53.0729 56.3828 52.3438 55.6016C51.6276 54.8203 51.1198 54.0911 50.8203 53.4141C50.4948 54.2214 49.9219 55.0938 49.1016 56.0312C48.2943 56.9557 47.5 57.6979 46.7188 58.2578L45.2539 56.8516ZM67.8125 65.4844V60.7578H78.5156V59.332H67.6953V57.5938H80.6641V62.2812H69.9609V63.7461H81.0938V65.4844H67.8125ZM65.2344 56.2266V54.4883H83.1055V56.2266H65.2344ZM67.8516 53.082V47.7109H80.6445V49.4297H70V51.3828H80.7422V53.082H67.8516ZM87.5 65.4844V60.7578H98.2031V59.332H87.3828V57.5938H100.352V62.2812H89.6484V63.7461H100.781V65.4844H87.5ZM84.9219 56.2266V54.4883H102.793V56.2266H84.9219ZM86.9141 50.4062C86.9141 49.7422 87.2461 49.1888 87.9102 48.7461C88.5872 48.3034 89.4336 47.9909 90.4492 47.8086C91.4648 47.6133 92.6172 47.5156 93.9062 47.5156C95.8854 47.5156 97.5456 47.7565 98.8867 48.2383C100.228 48.7201 100.898 49.4427 100.898 50.4062C100.898 51.3698 100.228 52.0924 98.8867 52.5742C97.5456 53.056 95.8854 53.2969 93.9062 53.2969C92.6042 53.2969 91.4453 53.2057 90.4297 53.0234C89.4141 52.8281 88.5742 52.5091 87.9102 52.0664C87.2461 51.6237 86.9141 51.0703 86.9141 50.4062ZM89.3164 50.4062C89.3164 51.2396 90.8464 51.6562 93.9062 51.6562C96.9661 51.6562 98.4961 51.2396 98.4961 50.4062C98.4961 49.9635 98.0534 49.6445 97.168 49.4492C96.2826 49.2409 95.1953 49.1367 93.9062 49.1367C92.6562 49.1367 91.5755 49.2344 90.6641 49.4297C89.7656 49.625 89.3164 49.9505 89.3164 50.4062ZM122.383 65.7773V47.418H124.59V54.9961H127.539V57.0859H124.59V65.7773H122.383ZM109.824 61.8125C112.025 60.3932 113.757 58.707 115.02 56.7539C116.283 54.8008 116.927 52.9062 116.953 51.0703H110.82V49.1172H119.238C119.238 54.9245 116.608 59.6185 111.348 63.1992L109.824 61.8125ZM129.18 63.8633V61.9883H147.051V63.8633H129.18ZM131.777 59.2734V53.1406H142.402V50.6406H131.66V48.7656H144.551V54.918H133.926V57.3984H144.844V59.2734H131.777ZM162.91 65.7773V47.418H165.117V65.7773H162.91ZM152.344 50.25V48.3164H159.121V50.25H152.344ZM149.375 61.9102C150.013 61.5586 150.605 61.181 151.152 60.7773C151.712 60.3607 152.266 59.8789 152.812 59.332C153.359 58.7852 153.789 58.1667 154.102 57.4766C154.414 56.7865 154.57 56.0703 154.57 55.3281V54.332H150.176V52.3594H160.996V54.332H156.758V55.1914C156.758 57.3919 158.327 59.4948 161.465 61.5L160.039 62.9258C159.284 62.444 158.464 61.793 157.578 60.9727C156.693 60.1393 156.061 59.3581 155.684 58.6289C155.267 59.4753 154.577 60.3542 153.613 61.2656C152.663 62.1641 151.732 62.8542 150.82 63.3359L149.375 61.9102ZM168.555 63.5508V61.6562H175.02V55.0352H177.207V61.6562H186.426V63.5508H168.555ZM170.918 50.9531V49H184.297C184.297 52.5026 183.932 55.9076 183.203 59.2148H181.035C181.374 57.7956 181.641 56.3112 181.836 54.7617C182.031 53.2122 182.129 51.9427 182.129 50.9531H170.918ZM195.41 64.293C196.27 63.7461 197.031 63.0365 197.695 62.1641C198.372 61.2786 198.711 60.4453 198.711 59.6641V58.8242H200.84V59.5078C200.84 60.224 201.1 60.9596 201.621 61.7148C202.142 62.4701 202.656 63.0234 203.164 63.375C203.698 62.9974 204.219 62.444 204.727 61.7148C205.234 60.9727 205.488 60.237 205.488 59.5078V58.8242H207.617V59.6445C207.617 60.4518 207.949 61.3047 208.613 62.2031C209.29 63.0885 210.052 63.7917 210.898 64.3125L209.609 65.6602C209.01 65.2826 208.424 64.7812 207.852 64.1562C207.292 63.5312 206.868 62.9388 206.582 62.3789C206.27 62.9518 205.775 63.5703 205.098 64.2344C204.421 64.8984 203.776 65.3672 203.164 65.6406C202.578 65.3802 201.94 64.9115 201.25 64.2344C200.573 63.5703 200.078 62.9583 199.766 62.3984C199.479 62.9323 199.069 63.5052 198.535 64.1172C198.014 64.7292 197.435 65.2435 196.797 65.6602L195.41 64.293ZM207.363 58.2969V47.418H209.531V58.2969H207.363ZM194.219 52.5352C194.219 51.168 194.674 50.0677 195.586 49.2344C196.51 48.388 197.702 47.9648 199.16 47.9648C200.605 47.9648 201.79 48.388 202.715 49.2344C203.652 50.0677 204.121 51.168 204.121 52.5352C204.121 53.9154 203.659 55.0286 202.734 55.875C201.81 56.7083 200.618 57.125 199.16 57.125C197.702 57.125 196.51 56.7083 195.586 55.875C194.674 55.0286 194.219 53.9154 194.219 52.5352ZM196.406 52.5352C196.406 53.3685 196.66 54.0521 197.168 54.5859C197.676 55.1198 198.34 55.3867 199.16 55.3867C199.98 55.3867 200.645 55.1198 201.152 54.5859C201.66 54.0391 201.914 53.3555 201.914 52.5352C201.914 51.7279 201.66 51.0573 201.152 50.5234C200.645 49.9766 199.98 49.7031 199.16 49.7031C198.353 49.7031 197.689 49.9766 197.168 50.5234C196.66 51.0573 196.406 51.7279 196.406 52.5352ZM225.645 65.7773V47.418H227.832V54.7031H230.762V56.8125H227.832V65.7773H225.645ZM214.414 61.7148V49.1367H222.93V51.0117H216.543V59.8203H216.973C219.46 59.8203 221.94 59.6576 224.414 59.332V61.0898C221.549 61.5065 218.451 61.7148 215.117 61.7148H214.414ZM233.75 64V61.207H236.758V64H233.75Z" fill="#010101"/>
</svg>
