<svg width="225" height="85" viewBox="0 0 225 85" fill="none" xmlns="http://www.w3.org/2000/svg">
<rect x="1.5" y="1.5" width="222" height="82" fill="#FFFF00"/>
<rect x="1.5" y="1.5" width="222" height="82" stroke="black" stroke-width="3"/>
<path d="M38.6914 37.7773V19.418H40.8789V26.7031H43.8086V28.8125H40.8789V37.7773H38.6914ZM27.4609 33.7148V21.1367H35.9766V23.0117H29.5898V31.8203H30.0195C32.5065 31.8203 34.987 31.6576 37.4609 31.332V33.0898C34.5964 33.5065 31.4974 33.7148 28.1641 33.7148H27.4609ZM59.5898 37.7773V19.418H61.7969V37.7773H59.5898ZM46.7773 27.5234C46.7773 25.401 47.194 23.6823 48.0273 22.3672C48.8737 21.0391 50.0326 20.375 51.5039 20.375C52.9753 20.375 54.1276 21.0391 54.9609 22.3672C55.7943 23.6823 56.2109 25.401 56.2109 27.5234C56.2109 29.6589 55.7943 31.3906 54.9609 32.7188C54.1406 34.0339 52.9883 34.6914 51.5039 34.6914C50.0195 34.6914 48.8607 34.0339 48.0273 32.7188C47.194 31.3906 46.7773 29.6589 46.7773 27.5234ZM48.9844 27.5234C48.9844 29.0469 49.1927 30.2969 49.6094 31.2734C50.026 32.25 50.6576 32.7383 51.5039 32.7383C52.3503 32.7383 52.9753 32.25 53.3789 31.2734C53.7956 30.2839 54.0039 29.0339 54.0039 27.5234C54.0039 26.5339 53.9258 25.6615 53.7695 24.9062C53.6133 24.151 53.3398 23.5326 52.9492 23.0508C52.5716 22.556 52.0898 22.3086 51.5039 22.3086C51.0612 22.3086 50.6706 22.4518 50.332 22.7383C50.0065 23.0117 49.7461 23.3958 49.5508 23.8906C49.3685 24.3854 49.2253 24.9388 49.1211 25.5508C49.0299 26.1497 48.9844 26.8073 48.9844 27.5234ZM74.668 28.4609V26.3711H79.375V19.418H81.5625V37.7773H79.375V28.4609H74.668ZM66.3477 27.5625C66.3477 25.4271 66.7578 23.6953 67.5781 22.3672C68.3984 21.026 69.5443 20.3555 71.0156 20.3555C72.474 20.3555 73.6133 21.0195 74.4336 22.3477C75.2669 23.6758 75.6836 25.4141 75.6836 27.5625C75.6836 29.7109 75.2734 31.4492 74.4531 32.7773C73.6328 34.1055 72.487 34.7695 71.0156 34.7695C69.5443 34.7695 68.3984 34.1055 67.5781 32.7773C66.7578 31.4492 66.3477 29.7109 66.3477 27.5625ZM68.5547 27.5625C68.5547 28.5521 68.6328 29.431 68.7891 30.1992C68.9583 30.9674 69.2318 31.599 69.6094 32.0938C69.987 32.5885 70.4557 32.8359 71.0156 32.8359C71.849 32.8359 72.4674 32.3411 72.8711 31.3516C73.2747 30.349 73.4766 29.0859 73.4766 27.5625C73.4766 26.013 73.2747 24.75 72.8711 23.7734C72.4805 22.7969 71.862 22.3086 71.0156 22.3086C70.1693 22.3086 69.5443 22.8034 69.1406 23.793C68.75 24.7695 68.5547 26.026 68.5547 27.5625ZM84.9219 35.8633V33.9883H102.793V35.8633H84.9219ZM87.5 31.2344V20.8633H100.566V22.7383H89.7461V25.1602H100.43V26.9375H89.7461V29.3398H100.723V31.2344H87.5ZM112.305 33.4219V31.6055H125.039V37.8945H122.891V33.4219H112.305ZM122.871 30.7266V19.418H125.039V22.0938H127.383V23.832H125.039V26.6836H127.383V28.4219H125.039V30.7266H122.871ZM110.137 24.6523C110.137 23.2982 110.605 22.2044 111.543 21.3711C112.48 20.5378 113.678 20.1211 115.137 20.1211C116.582 20.1211 117.773 20.5378 118.711 21.3711C119.648 22.2044 120.117 23.2982 120.117 24.6523C120.117 26.0195 119.648 27.1133 118.711 27.9336C117.786 28.7539 116.595 29.1641 115.137 29.1641C113.652 29.1641 112.448 28.7539 111.523 27.9336C110.599 27.1133 110.137 26.0195 110.137 24.6523ZM112.344 24.6523C112.344 25.4596 112.604 26.1237 113.125 26.6445C113.646 27.1654 114.316 27.4258 115.137 27.4258C115.97 27.4258 116.641 27.1654 117.148 26.6445C117.656 26.1237 117.91 25.4596 117.91 24.6523C117.91 23.8451 117.656 23.181 117.148 22.6602C116.641 22.1263 115.97 21.8594 115.137 21.8594C114.316 21.8594 113.646 22.1263 113.125 22.6602C112.604 23.194 112.344 23.8581 112.344 24.6523ZM131.758 37.4844V32.7578H142.461V31.332H131.641V29.5938H144.609V34.2812H133.906V35.7461H145.039V37.4844H131.758ZM129.18 28.2266V26.4883H147.051V28.2266H129.18ZM131.172 22.4062C131.172 21.7422 131.504 21.1888 132.168 20.7461C132.845 20.3034 133.691 19.9909 134.707 19.8086C135.723 19.6133 136.875 19.5156 138.164 19.5156C140.143 19.5156 141.803 19.7565 143.145 20.2383C144.486 20.7201 145.156 21.4427 145.156 22.4062C145.156 23.3698 144.486 24.0924 143.145 24.5742C141.803 25.056 140.143 25.2969 138.164 25.2969C136.862 25.2969 135.703 25.2057 134.688 25.0234C133.672 24.8281 132.832 24.5091 132.168 24.0664C131.504 23.6237 131.172 23.0703 131.172 22.4062ZM133.574 22.4062C133.574 23.2396 135.104 23.6562 138.164 23.6562C141.224 23.6562 142.754 23.2396 142.754 22.4062C142.754 21.9635 142.311 21.6445 141.426 21.4492C140.54 21.2409 139.453 21.1367 138.164 21.1367C136.914 21.1367 135.833 21.2344 134.922 21.4297C134.023 21.625 133.574 21.9505 133.574 22.4062ZM36.2695 58.043V55.9727H40.0195V47.418H42.207V65.7773H40.0195V58.043H36.2695ZM29.043 50.2109V48.2969H35.625V50.2109H29.043ZM26.25 62.0664C27.5 61.3893 28.6328 60.4583 29.6484 59.2734C30.6771 58.0885 31.1914 56.8516 31.1914 55.5625V54.0781H27.0312V52.1641H37.3828V54.0781H33.3789V55.4648C33.3789 56.2982 33.6458 57.1576 34.1797 58.043C34.7135 58.9284 35.2865 59.6576 35.8984 60.2305C36.5104 60.8034 37.1224 61.2786 37.7344 61.6562L36.3086 63.0625C35.6315 62.6719 34.8893 62.0729 34.082 61.2656C33.2747 60.4453 32.6888 59.6576 32.3242 58.9023C31.9206 59.7227 31.263 60.5885 30.3516 61.5C29.4401 62.3984 28.5807 63.0625 27.7734 63.4922L26.25 62.0664ZM48.2812 62.3594C48.2812 61.2917 48.8867 60.4648 50.0977 59.8789C51.3216 59.2799 52.9362 58.9805 54.9414 58.9805C56.9596 58.9805 58.5742 59.2734 59.7852 59.8594C61.0091 60.4453 61.6211 61.2786 61.6211 62.3594C61.6211 63.4271 61.0091 64.2539 59.7852 64.8398C58.5612 65.4258 56.9466 65.7188 54.9414 65.7188C52.9232 65.7188 51.3086 65.4258 50.0977 64.8398C48.8867 64.2539 48.2812 63.4271 48.2812 62.3594ZM50.6445 62.3594C50.6445 62.8802 51.0221 63.2773 51.7773 63.5508C52.5456 63.8242 53.6003 63.9609 54.9414 63.9609C56.2305 63.9609 57.2721 63.8242 58.0664 63.5508C58.8607 63.2643 59.2578 62.8672 59.2578 62.3594C59.2578 61.8255 58.8672 61.4219 58.0859 61.1484C57.3177 60.875 56.2695 60.7383 54.9414 60.7383C53.6003 60.7383 52.5456 60.8815 51.7773 61.168C51.0221 61.4414 50.6445 61.8385 50.6445 62.3594ZM58.9258 58.9414V47.418H61.0938V52.3398H63.4375V54.3125H61.0938V58.9414H58.9258ZM46.5039 57.4961V48.1016H48.6133V50.9727H53.6328V48.1016H55.7422V57.4961H46.5039ZM48.6133 55.6992H53.6328V52.7305H48.6133V55.6992ZM68.4766 65.5234V59.2539H80.8984V61.0703H70.6055V63.6875H81.2305V65.5234H68.4766ZM78.6133 58.2773V47.418H80.7812V52.0273H83.1641V54H80.7812V58.2773H78.6133ZM66.1914 57.2812V48.082H68.3008V50.875H73.3594V48.082H75.4688V57.2812H66.1914ZM68.3008 55.5039H73.3594V52.6133H68.3008V55.5039ZM87.7344 65.25V60.1328H89.8828V63.3945H100.742V65.25H87.7344ZM84.9219 58.7461V56.9297H102.793V58.7461H84.9219ZM86.9922 51.3633C86.9922 50.569 87.3177 49.8919 87.9688 49.332C88.6198 48.7721 89.4531 48.362 90.4688 48.1016C91.4974 47.8411 92.6432 47.7109 93.9062 47.7109C95.1562 47.7109 96.2891 47.8411 97.3047 48.1016C98.3333 48.362 99.1732 48.7786 99.8242 49.3516C100.488 49.9115 100.82 50.582 100.82 51.3633C100.82 52.1576 100.488 52.8411 99.8242 53.4141C99.1732 53.974 98.3333 54.3841 97.3047 54.6445C96.2891 54.9049 95.1562 55.0352 93.9062 55.0352C91.9271 55.0352 90.2799 54.7161 88.9648 54.0781C87.6497 53.4401 86.9922 52.5352 86.9922 51.3633ZM89.375 51.3633C89.375 52.0013 89.8177 52.4896 90.7031 52.8281C91.5885 53.1667 92.6562 53.3359 93.9062 53.3359C95.1693 53.3359 96.237 53.1667 97.1094 52.8281C97.9948 52.4766 98.4375 51.9883 98.4375 51.3633C98.4375 50.7383 97.9948 50.2565 97.1094 49.918C96.237 49.5794 95.1693 49.4102 93.9062 49.4102C92.6953 49.4102 91.6341 49.5794 90.7227 49.918C89.8242 50.2565 89.375 50.7383 89.375 51.3633ZM112.812 61.4414V59.625H125.859V65.875H123.711V61.4414H112.812ZM120.078 54.0391V52.1055H123.691V47.418H125.859V58.7852H123.691V54.0391H120.078ZM109.805 57.2031C110.286 57.0078 110.781 56.7539 111.289 56.4414C111.81 56.1159 112.337 55.7253 112.871 55.2695C113.418 54.8138 113.867 54.2734 114.219 53.6484C114.583 53.0234 114.772 52.3854 114.785 51.7344V50.3086H110.859V48.4922H120.938V50.3086H117.09V51.6953C117.116 52.2812 117.285 52.8607 117.598 53.4336C117.923 53.9935 118.327 54.4948 118.809 54.9375C119.303 55.3672 119.779 55.7383 120.234 56.0508C120.703 56.3633 121.165 56.6302 121.621 56.8516L120.469 58.2578C119.674 57.9062 118.822 57.3724 117.91 56.6562C117.012 55.9271 116.361 55.2435 115.957 54.6055C115.514 55.3216 114.811 56.0833 113.848 56.8906C112.897 57.6849 111.966 58.2708 111.055 58.6484L109.805 57.2031ZM143.223 65.7773V47.418H145.43V65.7773H143.223ZM130.41 55.5234C130.41 53.401 130.827 51.6823 131.66 50.3672C132.507 49.0391 133.665 48.375 135.137 48.375C136.608 48.375 137.76 49.0391 138.594 50.3672C139.427 51.6823 139.844 53.401 139.844 55.5234C139.844 57.6589 139.427 59.3906 138.594 60.7188C137.773 62.0339 136.621 62.6914 135.137 62.6914C133.652 62.6914 132.493 62.0339 131.66 60.7188C130.827 59.3906 130.41 57.6589 130.41 55.5234ZM132.617 55.5234C132.617 57.0469 132.826 58.2969 133.242 59.2734C133.659 60.25 134.29 60.7383 135.137 60.7383C135.983 60.7383 136.608 60.25 137.012 59.2734C137.428 58.2839 137.637 57.0339 137.637 55.5234C137.637 54.5339 137.559 53.6615 137.402 52.9062C137.246 52.151 136.973 51.5326 136.582 51.0508C136.204 50.556 135.723 50.3086 135.137 50.3086C134.694 50.3086 134.303 50.4518 133.965 50.7383C133.639 51.0117 133.379 51.3958 133.184 51.8906C133.001 52.3854 132.858 52.9388 132.754 53.5508C132.663 54.1497 132.617 54.8073 132.617 55.5234ZM156.035 64.293C156.895 63.7461 157.656 63.0365 158.32 62.1641C158.997 61.2786 159.336 60.4453 159.336 59.6641V58.8242H161.465V59.5078C161.465 60.224 161.725 60.9596 162.246 61.7148C162.767 62.4701 163.281 63.0234 163.789 63.375C164.323 62.9974 164.844 62.444 165.352 61.7148C165.859 60.9727 166.113 60.237 166.113 59.5078V58.8242H168.242V59.6445C168.242 60.4518 168.574 61.3047 169.238 62.2031C169.915 63.0885 170.677 63.7917 171.523 64.3125L170.234 65.6602C169.635 65.2826 169.049 64.7812 168.477 64.1562C167.917 63.5312 167.493 62.9388 167.207 62.3789C166.895 62.9518 166.4 63.5703 165.723 64.2344C165.046 64.8984 164.401 65.3672 163.789 65.6406C163.203 65.3802 162.565 64.9115 161.875 64.2344C161.198 63.5703 160.703 62.9583 160.391 62.3984C160.104 62.9323 159.694 63.5052 159.16 64.1172C158.639 64.7292 158.06 65.2435 157.422 65.6602L156.035 64.293ZM167.988 58.2969V47.418H170.156V58.2969H167.988ZM154.844 52.5352C154.844 51.168 155.299 50.0677 156.211 49.2344C157.135 48.388 158.327 47.9648 159.785 47.9648C161.23 47.9648 162.415 48.388 163.34 49.2344C164.277 50.0677 164.746 51.168 164.746 52.5352C164.746 53.9154 164.284 55.0286 163.359 55.875C162.435 56.7083 161.243 57.125 159.785 57.125C158.327 57.125 157.135 56.7083 156.211 55.875C155.299 55.0286 154.844 53.9154 154.844 52.5352ZM157.031 52.5352C157.031 53.3685 157.285 54.0521 157.793 54.5859C158.301 55.1198 158.965 55.3867 159.785 55.3867C160.605 55.3867 161.27 55.1198 161.777 54.5859C162.285 54.0391 162.539 53.3555 162.539 52.5352C162.539 51.7279 162.285 51.0573 161.777 50.5234C161.27 49.9766 160.605 49.7031 159.785 49.7031C158.978 49.7031 158.314 49.9766 157.793 50.5234C157.285 51.0573 157.031 51.7279 157.031 52.5352ZM186.27 65.7773V47.418H188.457V54.7031H191.387V56.8125H188.457V65.7773H186.27ZM175.039 61.7148V49.1367H183.555V51.0117H177.168V59.8203H177.598C180.085 59.8203 182.565 59.6576 185.039 59.332V61.0898C182.174 61.5065 179.076 61.7148 175.742 61.7148H175.039ZM194.375 64V61.207H197.383V64H194.375Z" fill="#010101"/>
</svg>
