<svg width="326" height="85" viewBox="0 0 326 85" fill="none" xmlns="http://www.w3.org/2000/svg">
<rect x="1.5" y="1.5" width="323" height="82" fill="#FFFF00"/>
<rect x="1.5" y="1.5" width="323" height="82" stroke="black" stroke-width="3"/>
<path d="M26.3672 35.2773V33.4219H28.418C33.3919 33.4219 37.1159 33.2786 39.5898 32.9922V34.8086C36.7383 35.1211 33.0078 35.2773 28.3984 35.2773H26.3672ZM31.9336 33.9883V30.4336H34.1406V33.9883H31.9336ZM40.1172 37.7773V19.418H42.3242V37.7773H40.1172ZM29.5312 21.9375V20.2383H36.5234V21.9375H29.5312ZM26.4453 30.0234C27.2786 29.724 28.0404 29.3984 28.7305 29.0469C29.4336 28.6823 30.0846 28.2135 30.6836 27.6406C31.2956 27.0677 31.6341 26.4818 31.6992 25.8828V25.2969H27.207V23.5586H38.6133V25.2969H34.2773V25.8047C34.3294 26.3516 34.6484 26.9049 35.2344 27.4648C35.8203 28.0117 36.4193 28.4544 37.0312 28.793C37.6562 29.1315 38.3333 29.457 39.0625 29.7695L37.9297 31.1758C37.1224 30.8763 36.2174 30.4271 35.2148 29.8281C34.2122 29.2161 33.4831 28.6172 33.0273 28.0312C32.5326 28.6953 31.7643 29.3529 30.7227 30.0039C29.681 30.6419 28.6458 31.1302 27.6172 31.4688L26.4453 30.0234ZM48.3203 37.0352V31.1172H50.4688V35.1211H61.4062V37.0352H48.3203ZM45.5469 29.3594V27.4844H63.418V29.3594H45.5469ZM47.8516 22.3086V20.4336H61.0938C61.0938 21.4753 61.0091 22.7188 60.8398 24.1641C60.6836 25.5964 60.4883 26.8333 60.2539 27.875H58.125C58.3594 26.9375 58.5547 25.9219 58.7109 24.8281C58.8672 23.7344 58.9453 22.8945 58.9453 22.3086H47.8516ZM79.7266 37.7773V19.418H81.8164V37.7773H79.7266ZM72.9883 28.4805V26.4102H75.8984V19.9258H77.8711V36.957H75.8984V28.4805H72.9883ZM66.0547 27.5625C66.0547 25.4531 66.3867 23.7539 67.0508 22.4648C67.7148 21.1628 68.6914 20.5117 69.9805 20.5117C71.2565 20.5117 72.2266 21.1628 72.8906 22.4648C73.5677 23.7539 73.9062 25.4531 73.9062 27.5625C73.9062 29.6849 73.5742 31.3906 72.9102 32.6797C72.2461 33.9688 71.2695 34.6133 69.9805 34.6133C68.6784 34.6133 67.6953 33.9753 67.0312 32.6992C66.3802 31.4102 66.0547 29.6979 66.0547 27.5625ZM68.2031 27.5625C68.2031 30.974 68.7956 32.6797 69.9805 32.6797C71.1654 32.6797 71.7578 30.974 71.7578 27.5625C71.7578 24.151 71.1654 22.4453 69.9805 22.4453C68.7956 22.4453 68.2031 24.151 68.2031 27.5625ZM102.891 37.7773V19.418H105.098V26.8008H107.949V28.9102H105.098V37.7773H102.891ZM90.6445 27.5234C90.6445 25.401 91.0547 23.6823 91.875 22.3672C92.6953 21.0391 93.8346 20.375 95.293 20.375C96.7383 20.375 97.8711 21.0391 98.6914 22.3672C99.5117 23.6823 99.9219 25.401 99.9219 27.5234C99.9219 29.6589 99.5117 31.3906 98.6914 32.7188C97.8841 34.0339 96.7513 34.6914 95.293 34.6914C93.8216 34.6914 92.6758 34.0339 91.8555 32.7188C91.0482 31.3906 90.6445 29.6589 90.6445 27.5234ZM92.8516 27.5234C92.8516 29.0599 93.0534 30.3164 93.457 31.293C93.8607 32.2565 94.4727 32.7383 95.293 32.7383C96.1133 32.7383 96.7188 32.25 97.1094 31.2734C97.513 30.2969 97.7148 29.0469 97.7148 27.5234C97.7148 25.987 97.5195 24.737 97.1289 23.7734C96.7383 22.7969 96.1263 22.3086 95.293 22.3086C94.4596 22.3086 93.8411 22.8034 93.4375 23.793C93.0469 24.7695 92.8516 26.013 92.8516 27.5234ZM123.535 37.7773V19.418H125.742V37.7773H123.535ZM110.723 27.5234C110.723 25.401 111.139 23.6823 111.973 22.3672C112.819 21.0391 113.978 20.375 115.449 20.375C116.921 20.375 118.073 21.0391 118.906 22.3672C119.74 23.6823 120.156 25.401 120.156 27.5234C120.156 29.6589 119.74 31.3906 118.906 32.7188C118.086 34.0339 116.934 34.6914 115.449 34.6914C113.965 34.6914 112.806 34.0339 111.973 32.7188C111.139 31.3906 110.723 29.6589 110.723 27.5234ZM112.93 27.5234C112.93 29.0469 113.138 30.2969 113.555 31.2734C113.971 32.25 114.603 32.7383 115.449 32.7383C116.296 32.7383 116.921 32.25 117.324 31.2734C117.741 30.2839 117.949 29.0339 117.949 27.5234C117.949 26.5339 117.871 25.6615 117.715 24.9062C117.559 24.151 117.285 23.5326 116.895 23.0508C116.517 22.556 116.035 22.3086 115.449 22.3086C115.007 22.3086 114.616 22.4518 114.277 22.7383C113.952 23.0117 113.691 23.3958 113.496 23.8906C113.314 24.3854 113.171 24.9388 113.066 25.5508C112.975 26.1497 112.93 26.8073 112.93 27.5234ZM131.758 37.5039V33.2852H142.441V32.0938H131.66V30.5117H144.59V34.6719H133.906V35.9023H145.039V37.5039H131.758ZM129.18 29.2812V27.6992H147.051V29.2812H129.18ZM131.719 26.5078V22.4062H142.441V21.2539H131.602V19.6719H144.609V23.7539H133.887V24.9453H144.941V26.5078H131.719ZM156.27 37.6797V33.3633H167.051V32.0938H156.172V30.4922H169.199V34.75H158.418V36.0586H169.629V37.6797H156.27ZM153.75 29.0469V27.4648H171.621V29.0469H163.77V31H161.66V29.0469H153.75ZM158.77 20.6094V19.125H166.758V20.6094H158.77ZM155 25.5898C156.315 25.4206 157.624 25.1276 158.926 24.7109C160.241 24.2943 160.97 23.8906 161.113 23.5L161.133 23.3047H155.781V21.8008H169.688V23.3047H164.414L164.473 23.5C164.629 23.8385 165.339 24.2292 166.602 24.6719C167.865 25.1016 169.108 25.4076 170.332 25.5898L169.512 27.0352C168.34 26.8398 167.064 26.5273 165.684 26.0977C164.316 25.6549 163.353 25.1797 162.793 24.6719C162.181 25.2057 161.217 25.6875 159.902 26.1172C158.6 26.5339 157.246 26.8529 155.84 27.0742L155 25.5898ZM176.895 37.2305V31.2344H179.043V35.3164H189.551V37.2305H176.895ZM186.758 32.5625V19.418H188.926V25.1797H191.484V27.1328H188.926V32.5625H186.758ZM172.93 29.0859C173.581 28.7344 174.193 28.3307 174.766 27.875C175.352 27.4062 175.911 26.8659 176.445 26.2539C176.992 25.6289 177.422 24.9323 177.734 24.1641C178.06 23.3828 178.223 22.5755 178.223 21.7422V20.0625H180.352V21.7031C180.352 22.3542 180.469 22.9987 180.703 23.6367C180.951 24.2747 181.25 24.8411 181.602 25.3359C181.953 25.8177 182.363 26.2865 182.832 26.7422C183.301 27.1849 183.737 27.5495 184.141 27.8359C184.544 28.1224 184.948 28.3828 185.352 28.6172L184.043 30.0625C183.288 29.6589 182.422 29.0078 181.445 28.1094C180.482 27.2109 179.772 26.3255 179.316 25.4531C178.874 26.3906 178.171 27.3346 177.207 28.2852C176.243 29.2227 175.286 29.9714 174.336 30.5312L172.93 29.0859ZM203.887 36.957V19.9062H205.82V27.1523H207.734V19.418H209.785V37.7773H207.734V29.2422H205.82V36.957H203.887ZM195.605 22.4453V20.5312H201.23V22.4453H195.605ZM193.613 26.1562V24.2422H202.812V26.1562H193.613ZM194.16 31.2539C194.16 30.1211 194.557 29.2031 195.352 28.5C196.146 27.7839 197.155 27.4258 198.379 27.4258C199.616 27.4258 200.632 27.7839 201.426 28.5C202.22 29.2031 202.617 30.1211 202.617 31.2539C202.617 32.3867 202.22 33.3047 201.426 34.0078C200.645 34.7109 199.629 35.0625 198.379 35.0625C197.142 35.0625 196.126 34.7044 195.332 33.9883C194.551 33.2721 194.16 32.3607 194.16 31.2539ZM196.25 31.2539C196.25 31.8268 196.452 32.3021 196.855 32.6797C197.272 33.0443 197.78 33.2266 198.379 33.2266C198.965 33.2266 199.466 33.0443 199.883 32.6797C200.299 32.3151 200.508 31.8398 200.508 31.2539C200.508 30.6549 200.306 30.1732 199.902 29.8086C199.499 29.444 198.991 29.2617 198.379 29.2617C197.767 29.2617 197.259 29.4505 196.855 29.8281C196.452 30.1927 196.25 30.668 196.25 31.2539ZM221.094 37.4258V32.582H223.262V35.5898H233.789V37.4258H221.094ZM231.055 33.3828V19.418H233.242V25.8242H235.664V27.7773H233.242V33.3828H231.055ZM220.469 21.7617V20.043H227.285V21.7617H220.469ZM217.93 24.7695V23.0703H229.258V24.7695H217.93ZM218.691 28.5977C218.691 27.6732 219.186 26.957 220.176 26.4492C221.165 25.9414 222.396 25.6875 223.867 25.6875C225.326 25.6875 226.549 25.9479 227.539 26.4688C228.529 26.9766 229.023 27.6927 229.023 28.6172C229.023 29.5417 228.529 30.2643 227.539 30.7852C226.562 31.293 225.339 31.5469 223.867 31.5469C222.396 31.5469 221.165 31.2865 220.176 30.7656C219.186 30.2448 218.691 29.5221 218.691 28.5977ZM220.957 28.5977C220.957 29.0404 221.237 29.3789 221.797 29.6133C222.357 29.8477 223.047 29.9648 223.867 29.9648C224.661 29.9648 225.345 29.8477 225.918 29.6133C226.491 29.3789 226.777 29.0404 226.777 28.5977C226.777 28.1419 226.497 27.8034 225.938 27.582C225.391 27.3607 224.701 27.25 223.867 27.25C223.034 27.25 222.337 27.3672 221.777 27.6016C221.23 27.8229 220.957 28.1549 220.957 28.5977ZM255.352 37.7773V19.418H257.559V26.8008H260.41V28.9102H257.559V37.7773H255.352ZM243.105 27.5234C243.105 25.401 243.516 23.6823 244.336 22.3672C245.156 21.0391 246.296 20.375 247.754 20.375C249.199 20.375 250.332 21.0391 251.152 22.3672C251.973 23.6823 252.383 25.401 252.383 27.5234C252.383 29.6589 251.973 31.3906 251.152 32.7188C250.345 34.0339 249.212 34.6914 247.754 34.6914C246.283 34.6914 245.137 34.0339 244.316 32.7188C243.509 31.3906 243.105 29.6589 243.105 27.5234ZM245.312 27.5234C245.312 29.0599 245.514 30.3164 245.918 31.293C246.322 32.2565 246.934 32.7383 247.754 32.7383C248.574 32.7383 249.18 32.25 249.57 31.2734C249.974 30.2969 250.176 29.0469 250.176 27.5234C250.176 25.987 249.98 24.737 249.59 23.7734C249.199 22.7969 248.587 22.3086 247.754 22.3086C246.921 22.3086 246.302 22.8034 245.898 23.793C245.508 24.7695 245.312 26.013 245.312 27.5234ZM275.996 37.7773V19.418H278.203V37.7773H275.996ZM263.184 27.5234C263.184 25.401 263.6 23.6823 264.434 22.3672C265.28 21.0391 266.439 20.375 267.91 20.375C269.382 20.375 270.534 21.0391 271.367 22.3672C272.201 23.6823 272.617 25.401 272.617 27.5234C272.617 29.6589 272.201 31.3906 271.367 32.7188C270.547 34.0339 269.395 34.6914 267.91 34.6914C266.426 34.6914 265.267 34.0339 264.434 32.7188C263.6 31.3906 263.184 29.6589 263.184 27.5234ZM265.391 27.5234C265.391 29.0469 265.599 30.2969 266.016 31.2734C266.432 32.25 267.064 32.7383 267.91 32.7383C268.757 32.7383 269.382 32.25 269.785 31.2734C270.202 30.2839 270.41 29.0339 270.41 27.5234C270.41 26.5339 270.332 25.6615 270.176 24.9062C270.02 24.151 269.746 23.5326 269.355 23.0508C268.978 22.556 268.496 22.3086 267.91 22.3086C267.467 22.3086 267.077 22.4518 266.738 22.7383C266.413 23.0117 266.152 23.3958 265.957 23.8906C265.775 24.3854 265.632 24.9388 265.527 25.5508C265.436 26.1497 265.391 26.8073 265.391 27.5234ZM282.148 34.418V32.582H284.258C288.164 32.582 291.868 32.3477 295.371 31.8789V33.6953C291.908 34.1771 288.177 34.418 284.18 34.418H282.148ZM295.898 37.7773V19.418H298.105V37.7773H295.898ZM283.262 24.9648C283.262 23.5977 283.743 22.4974 284.707 21.6641C285.671 20.8307 286.901 20.4141 288.398 20.4141C289.883 20.4141 291.107 20.8372 292.07 21.6836C293.047 22.5169 293.535 23.6107 293.535 24.9648C293.535 26.3451 293.053 27.4453 292.09 28.2656C291.126 29.0859 289.896 29.4961 288.398 29.4961C286.888 29.4961 285.651 29.0859 284.688 28.2656C283.737 27.4323 283.262 26.332 283.262 24.9648ZM285.488 24.9648C285.488 25.7852 285.755 26.4622 286.289 26.9961C286.836 27.5169 287.539 27.7773 288.398 27.7773C289.258 27.7773 289.961 27.5169 290.508 26.9961C291.055 26.4622 291.328 25.7852 291.328 24.9648C291.328 24.1576 291.055 23.487 290.508 22.9531C289.961 22.4062 289.258 22.1328 288.398 22.1328C287.552 22.1328 286.855 22.4062 286.309 22.9531C285.762 23.5 285.488 24.1706 285.488 24.9648ZM29.5117 65.5039V58.8242H42.2852V65.5039H29.5117ZM31.6602 63.668H40.1367V60.6797H31.6602V63.668ZM35.6641 53.4336V51.5H40.0977V47.418H42.2656V57.9648H40.0977V53.4336H35.6641ZM26.8164 52.4766C26.8164 51.1354 27.2786 50.0547 28.2031 49.2344C29.1406 48.401 30.332 47.9844 31.7773 47.9844C33.2227 47.9844 34.4076 48.401 35.332 49.2344C36.2695 50.0547 36.7383 51.1354 36.7383 52.4766C36.7383 53.8307 36.276 54.918 35.3516 55.7383C34.4271 56.5586 33.2357 56.9688 31.7773 56.9688C30.306 56.9688 29.1081 56.5586 28.1836 55.7383C27.2721 54.918 26.8164 53.8307 26.8164 52.4766ZM29.0039 52.4766C29.0039 53.2839 29.2578 53.9479 29.7656 54.4688C30.2865 54.9766 30.957 55.2305 31.7773 55.2305C32.6107 55.2305 33.2812 54.9766 33.7891 54.4688C34.2969 53.9479 34.5508 53.2839 34.5508 52.4766C34.5508 51.6823 34.2904 51.0247 33.7695 50.5039C33.2617 49.9701 32.5977 49.7031 31.7773 49.7031C30.9701 49.7031 30.306 49.9701 29.7852 50.5039C29.2643 51.0378 29.0039 51.6953 29.0039 52.4766ZM58.6328 65.7773V47.418H60.8398V54.8008H63.6914V56.9102H60.8398V65.7773H58.6328ZM46.8555 62.0859V49.1367H55.3906V62.0859H46.8555ZM48.9648 60.2305H53.2812V50.9922H48.9648V60.2305ZM78.125 65.7773V47.418H80.332V54.9961H83.2812V57.0859H80.332V65.7773H78.125ZM65.5664 61.8125C67.7669 60.3932 69.4987 58.707 70.7617 56.7539C72.0247 54.8008 72.6693 52.9062 72.6953 51.0703H66.5625V49.1172H74.9805C74.9805 54.9245 72.3503 59.6185 67.0898 63.1992L65.5664 61.8125ZM90.3125 62.7305V60.875H92.3633C97.3503 60.875 101.074 60.7318 103.535 60.4453V62.2422C100.697 62.5677 96.9661 62.7305 92.3438 62.7305H90.3125ZM95.8398 61.5586V56.3242H98.0469V61.5586H95.8398ZM104.062 65.7773V47.418H106.27V65.7773H104.062ZM91.9727 57.0859V48.8633H101.797V50.6992H94.1211V55.25H101.875V57.0859H91.9727ZM111.777 64.293C112.637 63.7461 113.398 63.0365 114.062 62.1641C114.74 61.2786 115.078 60.4453 115.078 59.6641V58.8242H117.207V59.5078C117.207 60.224 117.467 60.9596 117.988 61.7148C118.509 62.4701 119.023 63.0234 119.531 63.375C120.065 62.9974 120.586 62.444 121.094 61.7148C121.602 60.9727 121.855 60.237 121.855 59.5078V58.8242H123.984V59.6445C123.984 60.4518 124.316 61.3047 124.98 62.2031C125.658 63.0885 126.419 63.7917 127.266 64.3125L125.977 65.6602C125.378 65.2826 124.792 64.7812 124.219 64.1562C123.659 63.5312 123.236 62.9388 122.949 62.3789C122.637 62.9518 122.142 63.5703 121.465 64.2344C120.788 64.8984 120.143 65.3672 119.531 65.6406C118.945 65.3802 118.307 64.9115 117.617 64.2344C116.94 63.5703 116.445 62.9583 116.133 62.3984C115.846 62.9323 115.436 63.5052 114.902 64.1172C114.382 64.7292 113.802 65.2435 113.164 65.6602L111.777 64.293ZM119.277 53.5898V51.6562H123.73V47.418H125.898V58.3555H123.73V53.5898H119.277ZM110.449 52.6328C110.449 51.2526 110.911 50.1393 111.836 49.293C112.773 48.4466 113.965 48.0234 115.41 48.0234C116.855 48.0234 118.04 48.4531 118.965 49.3125C119.889 50.1589 120.352 51.2656 120.352 52.6328C120.352 54.026 119.889 55.1458 118.965 55.9922C118.053 56.8255 116.868 57.2422 115.41 57.2422C113.939 57.2422 112.741 56.819 111.816 55.9727C110.905 55.1263 110.449 54.013 110.449 52.6328ZM112.656 52.6328C112.656 53.4661 112.91 54.1562 113.418 54.7031C113.926 55.237 114.59 55.5039 115.41 55.5039C116.23 55.5039 116.888 55.237 117.383 54.7031C117.891 54.1562 118.145 53.4661 118.145 52.6328C118.145 51.8125 117.891 51.1289 117.383 50.582C116.888 50.0352 116.23 49.7617 115.41 49.7617C114.603 49.7617 113.939 50.0417 113.418 50.6016C112.91 51.1484 112.656 51.8255 112.656 52.6328ZM142.012 65.7773V47.418H144.199V54.7031H147.129V56.8125H144.199V65.7773H142.012ZM130.781 61.7148V49.1367H139.297V51.0117H132.91V59.8203H133.34C135.827 59.8203 138.307 59.6576 140.781 59.332V61.0898C137.917 61.5065 134.818 61.7148 131.484 61.7148H130.781ZM150.117 64V61.207H153.125V64H150.117Z" fill="#010101"/>
</svg>
