<svg width="233" height="113" viewBox="0 0 233 113" fill="none" xmlns="http://www.w3.org/2000/svg">
<rect x="1.5" y="1.5" width="230" height="110" fill="#FFFF00"/>
<rect x="1.5" y="1.5" width="230" height="110" stroke="black" stroke-width="3"/>
<path d="M33.7109 31.918V30.0039H36.6211V25.1211H33.7109V23.2266H36.6211V19.9258H38.5938V36.957H36.6211V31.918H33.7109ZM40.3516 37.7773V19.418H42.4414V37.7773H40.3516ZM26.6797 27.5625C26.6797 25.4531 27.0117 23.7539 27.6758 22.4648C28.3398 21.1628 29.3164 20.5117 30.6055 20.5117C31.8815 20.5117 32.8516 21.1628 33.5156 22.4648C34.1927 23.7539 34.5312 25.4531 34.5312 27.5625C34.5312 29.6849 34.1992 31.3906 33.5352 32.6797C32.8711 33.9688 31.8945 34.6133 30.6055 34.6133C29.3034 34.6133 28.3203 33.9753 27.6562 32.6992C27.0052 31.4102 26.6797 29.6979 26.6797 27.5625ZM28.8281 27.5625C28.8281 30.974 29.4206 32.6797 30.6055 32.6797C31.7904 32.6797 32.3828 30.974 32.3828 27.5625C32.3828 24.151 31.7904 22.4453 30.6055 22.4453C29.4206 22.4453 28.8281 24.151 28.8281 27.5625ZM48.0664 37.5039V32.7578H58.8477V31.332H47.9688V29.5938H60.9961V34.2812H50.2148V35.7656H61.4258V37.5039H48.0664ZM45.5469 27.8555V26.0977H63.418V27.8555H55.5664V30.2773H53.457V27.8555H45.5469ZM46.582 23.7539C47.3633 23.5846 48.1315 23.3698 48.8867 23.1094C49.6549 22.849 50.3906 22.5495 51.0938 22.2109C51.7969 21.8594 52.3633 21.4688 52.793 21.0391C53.2357 20.5964 53.457 20.1471 53.457 19.6914V19.3398H55.6055V19.6914C55.6055 20.2513 55.9961 20.8242 56.7773 21.4102C57.5586 21.9831 58.4505 22.4648 59.4531 22.8555C60.4557 23.2331 61.4648 23.5326 62.4805 23.7539L61.5234 25.3555C60.1953 25.082 58.8672 24.6328 57.5391 24.0078C56.2109 23.3828 55.2148 22.7122 54.5508 21.9961C53.9258 22.7122 52.9297 23.3893 51.5625 24.0273C50.2083 24.6654 48.8477 25.1146 47.4805 25.375L46.582 23.7539ZM65.2344 36.0391V34.1445H73.1836V30.4531H75.4102V34.1445H83.1055V36.0391H65.2344ZM67.8516 31.293V25.0039H78.4766V22.4062H67.7344V20.5117H80.625V26.8203H70V29.418H80.918V31.293H67.8516ZM94.5117 27.9727V25.9219H98.8867V19.418H101.094V37.7773H98.8867V27.9727H94.5117ZM84.6094 33.9688C85.2734 33.4609 85.8854 32.8945 86.4453 32.2695C87.0052 31.6445 87.5456 30.9089 88.0664 30.0625C88.5872 29.2031 88.9974 28.2135 89.2969 27.0938C89.5964 25.974 89.7461 24.7891 89.7461 23.5391V20.4531H91.875V23.4609C91.875 25.6354 92.3503 27.6081 93.3008 29.3789C94.2513 31.1497 95.3516 32.5104 96.6016 33.4609L95.0391 34.7891C94.2839 34.2292 93.4701 33.3438 92.5977 32.1328C91.7253 30.9219 91.1328 29.7956 90.8203 28.7539C90.5078 29.8607 89.9023 31.0391 89.0039 32.2891C88.1055 33.526 87.2005 34.5352 86.2891 35.3164L84.6094 33.9688ZM113.164 37.5039V29.8672H115.293V31.7617H123.789V29.8672H125.918V37.5039H113.164ZM115.293 35.668H123.789V33.4609H115.293V35.668ZM119.766 24.9844V23.0508H123.73V19.418H125.898V29.2422H123.73V24.9844H119.766ZM109.336 28.0508C109.961 27.7383 110.54 27.3997 111.074 27.0352C111.621 26.6576 112.168 26.2018 112.715 25.668C113.275 25.1211 113.717 24.4961 114.043 23.793C114.368 23.0768 114.531 22.3216 114.531 21.5273V19.8672H116.66V21.4883C116.66 22.2044 116.816 22.901 117.129 23.5781C117.441 24.2552 117.845 24.8542 118.34 25.375C118.848 25.8958 119.355 26.3451 119.863 26.7227C120.384 27.1003 120.911 27.4193 121.445 27.6797L120.195 29.125C119.427 28.7734 118.574 28.2005 117.637 27.4062C116.699 26.612 116.022 25.8307 115.605 25.0625C115.176 25.9089 114.473 26.7487 113.496 27.582C112.533 28.4023 111.576 29.0469 110.625 29.5156L109.336 28.0508ZM132.48 33.1484V31.293H145.547V37.9141H143.398V33.1484H132.48ZM143.379 30.4727V19.418H145.547V30.4727H143.379ZM129.062 28.2656C129.714 27.9401 130.332 27.5625 130.918 27.1328C131.517 26.7031 132.09 26.2083 132.637 25.6484C133.184 25.0885 133.62 24.4505 133.945 23.7344C134.271 23.0182 134.434 22.276 134.434 21.5078V20.043H136.582V21.4688C136.582 22.0677 136.699 22.6667 136.934 23.2656C137.181 23.8516 137.487 24.3659 137.852 24.8086C138.216 25.2513 138.633 25.681 139.102 26.0977C139.583 26.5013 140.033 26.8398 140.449 27.1133C140.866 27.3737 141.283 27.6081 141.699 27.8164L140.43 29.3008C139.648 28.9232 138.757 28.3177 137.754 27.4844C136.751 26.651 136.016 25.8177 135.547 24.9844C135.078 25.8828 134.349 26.7747 133.359 27.6602C132.37 28.5326 131.38 29.2227 130.391 29.7305L129.062 28.2656ZM151.602 34.1055C151.602 32.9727 152.214 32.0872 153.438 31.4492C154.661 30.7982 156.27 30.4727 158.262 30.4727C160.28 30.4727 161.895 30.7917 163.105 31.4297C164.329 32.0677 164.941 32.9596 164.941 34.1055C164.941 35.2383 164.323 36.1237 163.086 36.7617C161.849 37.4128 160.241 37.7318 158.262 37.7188C156.257 37.7057 154.642 37.3802 153.418 36.7422C152.207 36.1172 151.602 35.2383 151.602 34.1055ZM153.945 34.1055C153.945 34.6784 154.323 35.1211 155.078 35.4336C155.846 35.7461 156.908 35.9023 158.262 35.9023C159.564 35.9023 160.612 35.7461 161.406 35.4336C162.214 35.1081 162.617 34.6654 162.617 34.1055C162.617 33.5195 162.227 33.0703 161.445 32.7578C160.664 32.4453 159.603 32.2891 158.262 32.2891C156.921 32.2891 155.866 32.4518 155.098 32.7773C154.329 33.0898 153.945 33.5326 153.945 34.1055ZM162.246 30.5312V19.418H164.414V24.2617H166.758V26.2148H164.414V30.5312H162.246ZM148.828 28.7148C149.401 28.4544 149.954 28.1549 150.488 27.8164C151.035 27.4648 151.562 27.0677 152.07 26.625C152.591 26.1693 153.014 25.668 153.34 25.1211C153.678 24.5612 153.874 23.9948 153.926 23.4219V22.25H149.902V20.4141H160.293V22.25H156.348V23.3438C156.439 24.2943 156.934 25.1862 157.832 26.0195C158.743 26.8398 159.759 27.5169 160.879 28.0508L159.648 29.4766C158.828 29.125 157.975 28.6042 157.09 27.9141C156.217 27.224 155.586 26.5469 155.195 25.8828C154.779 26.612 154.108 27.3802 153.184 28.1875C152.259 28.9818 151.237 29.6393 150.117 30.1602L148.828 28.7148ZM178.984 36.957V19.9258H180.957V26.6641H183.047V19.418H185.137V37.7773H183.047V28.7148H180.957V36.957H178.984ZM169.355 27.582C169.355 25.4857 169.694 23.7995 170.371 22.5234C171.061 21.2344 172.057 20.5898 173.359 20.5898C174.648 20.5898 175.632 21.2344 176.309 22.5234C176.999 23.7995 177.344 25.4857 177.344 27.582C177.344 29.6914 177.005 31.3841 176.328 32.6602C175.651 33.9362 174.661 34.5742 173.359 34.5742C172.044 34.5742 171.048 33.9362 170.371 32.6602C169.694 31.3841 169.355 29.6914 169.355 27.582ZM171.504 27.582C171.504 30.9544 172.122 32.6406 173.359 32.6406C174.583 32.6406 175.195 30.9544 175.195 27.582C175.195 24.1966 174.583 22.5039 173.359 22.5039C172.122 22.5039 171.504 24.1966 171.504 27.582ZM190.82 37.5039V33.2852H201.504V32.0938H190.723V30.5117H203.652V34.6719H192.969V35.9023H204.102V37.5039H190.82ZM188.242 29.2812V27.6992H206.113V29.2812H188.242ZM190.781 26.5078V22.4062H201.504V21.2539H190.664V19.6719H203.672V23.7539H192.949V24.9453H204.004V26.5078H190.781ZM39.9023 65.7773V47.418H42.1094V65.7773H39.9023ZM27.0898 55.5234C27.0898 53.401 27.5065 51.6823 28.3398 50.3672C29.1862 49.0391 30.3451 48.375 31.8164 48.375C33.2878 48.375 34.4401 49.0391 35.2734 50.3672C36.1068 51.6823 36.5234 53.401 36.5234 55.5234C36.5234 57.6589 36.1068 59.3906 35.2734 60.7188C34.4531 62.0339 33.3008 62.6914 31.8164 62.6914C30.332 62.6914 29.1732 62.0339 28.3398 60.7188C27.5065 59.3906 27.0898 57.6589 27.0898 55.5234ZM29.2969 55.5234C29.2969 57.0469 29.5052 58.2969 29.9219 59.2734C30.3385 60.25 30.9701 60.7383 31.8164 60.7383C32.6628 60.7383 33.2878 60.25 33.6914 59.2734C34.1081 58.2839 34.3164 57.0339 34.3164 55.5234C34.3164 54.5339 34.2383 53.6615 34.082 52.9062C33.9258 52.151 33.6523 51.5326 33.2617 51.0508C32.8841 50.556 32.4023 50.3086 31.8164 50.3086C31.3737 50.3086 30.9831 50.4518 30.6445 50.7383C30.319 51.0117 30.0586 51.3958 29.8633 51.8906C29.681 52.3854 29.5378 52.9388 29.4336 53.5508C29.3424 54.1497 29.2969 54.8073 29.2969 55.5234ZM58.6133 65.7773V47.418H60.8008V51.793H63.5352V53.7461H60.8008V58.4336H63.5352V60.3867H60.8008V65.7773H58.6133ZM46.3867 55.5234C46.3867 53.401 46.7969 51.6823 47.6172 50.3672C48.4375 49.0391 49.5768 48.375 51.0352 48.375C52.4805 48.375 53.6133 49.0391 54.4336 50.3672C55.2539 51.6823 55.6641 53.401 55.6641 55.5234C55.6641 57.6589 55.2539 59.3906 54.4336 60.7188C53.6263 62.0339 52.4935 62.6914 51.0352 62.6914C49.5638 62.6914 48.418 62.0339 47.5977 60.7188C46.7904 59.3906 46.3867 57.6589 46.3867 55.5234ZM48.5938 55.5234C48.5938 57.0599 48.7956 58.3164 49.1992 59.293C49.6029 60.2565 50.2148 60.7383 51.0352 60.7383C51.8555 60.7383 52.4609 60.25 52.8516 59.2734C53.2552 58.2969 53.457 57.0469 53.457 55.5234C53.457 53.987 53.2617 52.737 52.8711 51.7734C52.4805 50.7969 51.8685 50.3086 51.0352 50.3086C50.2018 50.3086 49.5833 50.8034 49.1797 51.793C48.7891 52.7695 48.5938 54.013 48.5938 55.5234ZM79.0234 65.7773V47.418H81.2305V65.7773H79.0234ZM65.918 61.793C68.1576 60.3997 69.9284 58.7266 71.2305 56.7734C72.5456 54.8203 73.2161 52.9258 73.2422 51.0898H66.9336V49.1367H75.5273C75.5273 54.944 72.8255 59.6315 67.4219 63.1992L65.918 61.793ZM102.969 65.7773V47.418H105.156V55.6602H107.988V57.7109H105.156V65.7773H102.969ZM92.6172 50.3281V48.3555H99.1797V50.3281H92.6172ZM90.1953 54.1562V52.2031H101.055V54.1562H90.1953ZM90.9375 59.4102C90.9375 58.2513 91.3932 57.3073 92.3047 56.5781C93.2292 55.8359 94.4206 55.4648 95.8789 55.4648C97.3372 55.4648 98.5221 55.8294 99.4336 56.5586C100.358 57.2878 100.82 58.2383 100.82 59.4102C100.82 60.569 100.358 61.513 99.4336 62.2422C98.5221 62.9714 97.3372 63.3359 95.8789 63.3359C94.4206 63.3359 93.2292 62.9714 92.3047 62.2422C91.3932 61.513 90.9375 60.569 90.9375 59.4102ZM93.125 59.4102C93.125 60.0482 93.3984 60.556 93.9453 60.9336C94.4922 61.2982 95.1367 61.4805 95.8789 61.4805C96.6081 61.4805 97.2461 61.2917 97.793 60.9141C98.3398 60.5365 98.6133 60.0352 98.6133 59.4102C98.6133 58.7591 98.3464 58.2513 97.8125 57.8867C97.2786 57.5221 96.6341 57.3398 95.8789 57.3398C95.1107 57.3398 94.4596 57.5286 93.9258 57.9062C93.3919 58.2708 93.125 58.7721 93.125 59.4102ZM112.246 65.25V59.4688H114.395V63.3555H125.41V65.25H112.246ZM109.492 58.1797V56.3633H127.363V58.1797H109.492ZM112.207 53.7852V47.7109H114.375V52.0078H125.332V53.7852H112.207ZM136.797 62.3594C136.797 61.2917 137.402 60.4648 138.613 59.8789C139.837 59.2799 141.452 58.9805 143.457 58.9805C145.475 58.9805 147.09 59.2734 148.301 59.8594C149.525 60.4453 150.137 61.2786 150.137 62.3594C150.137 63.4271 149.525 64.2539 148.301 64.8398C147.077 65.4258 145.462 65.7188 143.457 65.7188C141.439 65.7188 139.824 65.4258 138.613 64.8398C137.402 64.2539 136.797 63.4271 136.797 62.3594ZM139.16 62.3594C139.16 62.8802 139.538 63.2773 140.293 63.5508C141.061 63.8242 142.116 63.9609 143.457 63.9609C144.746 63.9609 145.788 63.8242 146.582 63.5508C147.376 63.2643 147.773 62.8672 147.773 62.3594C147.773 61.8255 147.383 61.4219 146.602 61.1484C145.833 60.875 144.785 60.7383 143.457 60.7383C142.116 60.7383 141.061 60.8815 140.293 61.168C139.538 61.4414 139.16 61.8385 139.16 62.3594ZM147.441 58.9414V47.418H149.609V52.3398H151.953V54.3125H149.609V58.9414H147.441ZM135.02 57.4961V48.1016H137.129V50.9727H142.148V48.1016H144.258V57.4961H135.02ZM137.129 55.6992H142.148V52.7305H137.129V55.6992ZM157.402 65.5039V58.3164H159.512V60.0547H168.047V58.3164H170.156V65.5039H157.402ZM159.512 63.7266H168.047V61.6953H159.512V63.7266ZM163.418 53.3945V51.4609H167.988V47.418H170.156V57.6133H167.988V53.3945H163.418ZM155.137 57.2617V48.082H157.246V50.8555H162.129V48.082H164.238V57.2617H155.137ZM157.246 55.4844H162.129V52.5938H157.246V55.4844ZM176.016 65.4844V60.7578H186.719V59.332H175.898V57.5938H188.867V62.2812H178.164V63.7461H189.297V65.4844H176.016ZM173.438 56.2266V54.4883H191.309V56.2266H173.438ZM175.43 50.4062C175.43 49.7422 175.762 49.1888 176.426 48.7461C177.103 48.3034 177.949 47.9909 178.965 47.8086C179.98 47.6133 181.133 47.5156 182.422 47.5156C184.401 47.5156 186.061 47.7565 187.402 48.2383C188.743 48.7201 189.414 49.4427 189.414 50.4062C189.414 51.3698 188.743 52.0924 187.402 52.5742C186.061 53.056 184.401 53.2969 182.422 53.2969C181.12 53.2969 179.961 53.2057 178.945 53.0234C177.93 52.8281 177.09 52.5091 176.426 52.0664C175.762 51.6237 175.43 51.0703 175.43 50.4062ZM177.832 50.4062C177.832 51.2396 179.362 51.6562 182.422 51.6562C185.482 51.6562 187.012 51.2396 187.012 50.4062C187.012 49.9635 186.569 49.6445 185.684 49.4492C184.798 49.2409 183.711 49.1367 182.422 49.1367C181.172 49.1367 180.091 49.2344 179.18 49.4297C178.281 49.625 177.832 49.9505 177.832 50.4062ZM27.9688 92.332C29.388 92.0195 30.6641 91.5638 31.7969 90.9648C32.9427 90.3659 33.6003 89.7409 33.7695 89.0898H28.9062V87.293H41.8359V89.0898H36.9727C37.1419 89.6888 37.8125 90.3008 38.9844 90.9258C40.1693 91.5508 41.4388 92.0195 42.793 92.332L41.7969 93.9141C40.5078 93.5885 39.2643 93.1263 38.0664 92.5273C36.8685 91.9284 35.9766 91.2773 35.3906 90.5742C34.8177 91.2904 33.9323 91.9414 32.7344 92.5273C31.5495 93.1263 30.2865 93.5885 28.9453 93.9141L27.9688 92.332ZM39.2383 86.5898V75.418H41.4062V80.5352H43.7305V82.4883H41.4062V86.5898H39.2383ZM28.8086 77.3906V75.7109H35.5664V77.3906H28.8086ZM25.8984 85.2227C27.1745 84.7539 28.3008 84.1745 29.2773 83.4844C30.2539 82.7943 30.7878 82.0326 30.8789 81.1992V80.6328H26.6211V78.9336H37.4609V80.6328H33.418V81.1211C33.5482 82.3971 35.0391 83.6732 37.8906 84.9492L36.7383 86.3555C35.9961 86.056 35.1562 85.6133 34.2188 85.0273C33.2943 84.4414 32.6172 83.875 32.1875 83.3281C31.7057 83.9661 30.9701 84.6042 29.9805 85.2422C28.9909 85.8672 28.0208 86.3359 27.0703 86.6484L25.8984 85.2227ZM58.6328 93.7773V75.418H60.8398V82.8008H63.6914V84.9102H60.8398V93.7773H58.6328ZM46.3867 83.5234C46.3867 81.401 46.7969 79.6823 47.6172 78.3672C48.4375 77.0391 49.5768 76.375 51.0352 76.375C52.4805 76.375 53.6133 77.0391 54.4336 78.3672C55.2539 79.6823 55.6641 81.401 55.6641 83.5234C55.6641 85.6589 55.2539 87.3906 54.4336 88.7188C53.6263 90.0339 52.4935 90.6914 51.0352 90.6914C49.5638 90.6914 48.418 90.0339 47.5977 88.7188C46.7904 87.3906 46.3867 85.6589 46.3867 83.5234ZM48.5938 83.5234C48.5938 85.0599 48.7956 86.3164 49.1992 87.293C49.6029 88.2565 50.2148 88.7383 51.0352 88.7383C51.8555 88.7383 52.4609 88.25 52.8516 87.2734C53.2552 86.2969 53.457 85.0469 53.457 83.5234C53.457 81.987 53.2617 80.737 52.8711 79.7734C52.4805 78.7969 51.8685 78.3086 51.0352 78.3086C50.2018 78.3086 49.5833 78.8034 49.1797 79.793C48.7891 80.7695 48.5938 82.013 48.5938 83.5234ZM78.125 93.7773V75.418H80.332V82.9961H83.2812V85.0859H80.332V93.7773H78.125ZM65.5664 89.8125C67.7669 88.3932 69.4987 86.707 70.7617 84.7539C72.0247 82.8008 72.6693 80.9062 72.6953 79.0703H66.5625V77.1172H74.9805C74.9805 82.9245 72.3503 87.6185 67.0898 91.1992L65.5664 89.8125ZM84.9219 91.5508V89.6562H91.3867V83.0352H93.5742V89.6562H102.793V91.5508H84.9219ZM87.2852 78.9531V77H100.664C100.664 80.5026 100.299 83.9076 99.5703 87.2148H97.4023C97.7409 85.7956 98.0078 84.3112 98.2031 82.7617C98.3984 81.2122 98.4961 79.9427 98.4961 78.9531H87.2852ZM111.777 92.293C112.637 91.7461 113.398 91.0365 114.062 90.1641C114.74 89.2786 115.078 88.4453 115.078 87.6641V86.8242H117.207V87.5078C117.207 88.224 117.467 88.9596 117.988 89.7148C118.509 90.4701 119.023 91.0234 119.531 91.375C120.065 90.9974 120.586 90.444 121.094 89.7148C121.602 88.9727 121.855 88.237 121.855 87.5078V86.8242H123.984V87.6445C123.984 88.4518 124.316 89.3047 124.98 90.2031C125.658 91.0885 126.419 91.7917 127.266 92.3125L125.977 93.6602C125.378 93.2826 124.792 92.7812 124.219 92.1562C123.659 91.5312 123.236 90.9388 122.949 90.3789C122.637 90.9518 122.142 91.5703 121.465 92.2344C120.788 92.8984 120.143 93.3672 119.531 93.6406C118.945 93.3802 118.307 92.9115 117.617 92.2344C116.94 91.5703 116.445 90.9583 116.133 90.3984C115.846 90.9323 115.436 91.5052 114.902 92.1172C114.382 92.7292 113.802 93.2435 113.164 93.6602L111.777 92.293ZM123.73 86.2969V75.418H125.898V86.2969H123.73ZM110.586 80.5352C110.586 79.168 111.042 78.0677 111.953 77.2344C112.878 76.388 114.069 75.9648 115.527 75.9648C116.973 75.9648 118.158 76.388 119.082 77.2344C120.02 78.0677 120.488 79.168 120.488 80.5352C120.488 81.9154 120.026 83.0286 119.102 83.875C118.177 84.7083 116.986 85.125 115.527 85.125C114.069 85.125 112.878 84.7083 111.953 83.875C111.042 83.0286 110.586 81.9154 110.586 80.5352ZM112.773 80.5352C112.773 81.3685 113.027 82.0521 113.535 82.5859C114.043 83.1198 114.707 83.3867 115.527 83.3867C116.348 83.3867 117.012 83.1198 117.52 82.5859C118.027 82.0391 118.281 81.3555 118.281 80.5352C118.281 79.7279 118.027 79.0573 117.52 78.5234C117.012 77.9766 116.348 77.7031 115.527 77.7031C114.72 77.7031 114.056 77.9766 113.535 78.5234C113.027 79.0573 112.773 79.7279 112.773 80.5352ZM142.012 93.7773V75.418H144.199V82.7031H147.129V84.8125H144.199V93.7773H142.012ZM130.781 89.7148V77.1367H139.297V79.0117H132.91V87.8203H133.34C135.827 87.8203 138.307 87.6576 140.781 87.332V89.0898C137.917 89.5065 134.818 89.7148 131.484 89.7148H130.781ZM150.117 92V89.207H153.125V92H150.117Z" fill="#010101"/>
</svg>
