<svg width="169" height="85" viewBox="0 0 169 85" fill="none" xmlns="http://www.w3.org/2000/svg">
<rect x="1.5" y="1.5" width="166" height="82" fill="#FFFF00"/>
<rect x="1.5" y="1.5" width="166" height="82" stroke="black" stroke-width="3"/>
<path d="M33.7109 31.918V30.0039H36.6211V25.1211H33.7109V23.2266H36.6211V19.9258H38.5938V36.957H36.6211V31.918H33.7109ZM40.3516 37.7773V19.418H42.4414V37.7773H40.3516ZM26.6797 27.5625C26.6797 25.4531 27.0117 23.7539 27.6758 22.4648C28.3398 21.1628 29.3164 20.5117 30.6055 20.5117C31.8815 20.5117 32.8516 21.1628 33.5156 22.4648C34.1927 23.7539 34.5312 25.4531 34.5312 27.5625C34.5312 29.6849 34.1992 31.3906 33.5352 32.6797C32.8711 33.9688 31.8945 34.6133 30.6055 34.6133C29.3034 34.6133 28.3203 33.9753 27.6562 32.6992C27.0052 31.4102 26.6797 29.6979 26.6797 27.5625ZM28.8281 27.5625C28.8281 30.974 29.4206 32.6797 30.6055 32.6797C31.7904 32.6797 32.3828 30.974 32.3828 27.5625C32.3828 24.151 31.7904 22.4453 30.6055 22.4453C29.4206 22.4453 28.8281 24.151 28.8281 27.5625ZM48.0664 37.5039V32.7578H58.8477V31.332H47.9688V29.5938H60.9961V34.2812H50.2148V35.7656H61.4258V37.5039H48.0664ZM45.5469 27.8555V26.0977H63.418V27.8555H55.5664V30.2773H53.457V27.8555H45.5469ZM46.582 23.7539C47.3633 23.5846 48.1315 23.3698 48.8867 23.1094C49.6549 22.849 50.3906 22.5495 51.0938 22.2109C51.7969 21.8594 52.3633 21.4688 52.793 21.0391C53.2357 20.5964 53.457 20.1471 53.457 19.6914V19.3398H55.6055V19.6914C55.6055 20.2513 55.9961 20.8242 56.7773 21.4102C57.5586 21.9831 58.4505 22.4648 59.4531 22.8555C60.4557 23.2331 61.4648 23.5326 62.4805 23.7539L61.5234 25.3555C60.1953 25.082 58.8672 24.6328 57.5391 24.0078C56.2109 23.3828 55.2148 22.7122 54.5508 21.9961C53.9258 22.7122 52.9297 23.3893 51.5625 24.0273C50.2083 24.6654 48.8477 25.1146 47.4805 25.375L46.582 23.7539ZM79.0234 37.7773V19.418H81.2305V37.7773H79.0234ZM65.918 33.793C68.1576 32.3997 69.9284 30.7266 71.2305 28.7734C72.5456 26.8203 73.2161 24.9258 73.2422 23.0898H66.9336V21.1367H75.5273C75.5273 26.944 72.8255 31.6315 67.4219 35.1992L65.918 33.793ZM88.1445 34.7695V33.0898H101.348V38.0117H99.1992V34.7695H88.1445ZM85.5273 31.8789V30.2188H87.5781C92.513 30.2188 96.224 30.0755 98.7109 29.7891V31.3711C95.6641 31.7096 91.9466 31.8789 87.5586 31.8789H85.5273ZM91.2891 30.9414V28.1875H93.3789V30.9414H91.2891ZM99.1602 32.3672V19.418H101.328V32.3672H99.1602ZM89.0234 21.0391V19.4961H95.7422V21.0391H89.0234ZM86.5234 23.5586V22.0156H97.6758V23.5586H86.5234ZM87.2656 26.5469C87.2656 26.013 87.5195 25.5703 88.0273 25.2188C88.5352 24.8542 89.1536 24.6003 89.8828 24.457C90.625 24.3138 91.4518 24.2422 92.3633 24.2422C93.2617 24.2422 94.0755 24.3138 94.8047 24.457C95.5469 24.6003 96.1719 24.8542 96.6797 25.2188C97.2005 25.5703 97.4609 26.013 97.4609 26.5469C97.4609 27.3281 96.9661 27.9141 95.9766 28.3047C95 28.6953 93.7956 28.8906 92.3633 28.8906C90.931 28.8906 89.7201 28.6953 88.7305 28.3047C87.7539 27.9141 87.2656 27.3281 87.2656 26.5469ZM89.5312 26.5469C89.5312 27.1719 90.4753 27.4844 92.3633 27.4844C93.1706 27.4844 93.8411 27.4062 94.375 27.25C94.9219 27.0938 95.1953 26.8594 95.1953 26.5469C95.1953 25.9479 94.2513 25.6484 92.3633 25.6484C90.4753 25.6484 89.5312 25.9479 89.5312 26.5469ZM117.637 37.7773V19.418H119.824V26.8984H122.676V29.0078H119.824V37.7773H117.637ZM104.59 33.6562C105.176 33.2526 105.723 32.8034 106.23 32.3086C106.738 31.8138 107.259 31.2083 107.793 30.4922C108.327 29.776 108.75 28.9427 109.062 27.9922C109.388 27.0286 109.551 26.013 109.551 24.9453V23.1484H105.664V21.1367H115.645V23.1484H111.758V24.8867C111.758 25.8242 111.914 26.7487 112.227 27.6602C112.552 28.5586 112.962 29.3659 113.457 30.082C113.965 30.7852 114.466 31.3971 114.961 31.918C115.456 32.4258 115.957 32.8685 116.465 33.2461L114.98 34.6133C114.212 34.0273 113.405 33.2201 112.559 32.1914C111.712 31.1628 111.094 30.1732 110.703 29.2227C110.391 30.1862 109.766 31.2539 108.828 32.4258C107.904 33.5846 107.005 34.457 106.133 35.043L104.59 33.6562ZM124.297 36.0391V34.1445H132.246V30.4531H134.473V34.1445H142.168V36.0391H124.297ZM126.914 31.293V25.0039H137.539V22.4062H126.797V20.5117H139.688V26.8203H129.062V29.418H139.98V31.293H126.914ZM29.3945 65.5039V60.582H40.2148V59.0781H29.2773V57.2812H42.3633V62.1445H31.543V63.7266H42.793V65.5039H29.3945ZM40.1562 56.5586V47.418H42.3438V56.5586H40.1562ZM26.9336 51.793C26.9336 50.569 27.4023 49.5859 28.3398 48.8438C29.2773 48.1016 30.4688 47.7305 31.9141 47.7305C33.3464 47.7305 34.5312 48.1016 35.4688 48.8438C36.4193 49.5859 36.8945 50.569 36.8945 51.793C36.8945 53.0299 36.4258 54.0195 35.4883 54.7617C34.5508 55.4909 33.3594 55.8555 31.9141 55.8555C30.4427 55.8555 29.2448 55.4909 28.3203 54.7617C27.3958 54.0195 26.9336 53.0299 26.9336 51.793ZM29.1211 51.793C29.1211 52.4961 29.3815 53.069 29.9023 53.5117C30.4232 53.9414 31.0938 54.1562 31.9141 54.1562C32.7344 54.1562 33.3984 53.9349 33.9062 53.4922C34.4271 53.0495 34.6875 52.4831 34.6875 51.793C34.6875 51.1029 34.4271 50.5365 33.9062 50.0938C33.3854 49.638 32.7214 49.4102 31.9141 49.4102C31.1198 49.4102 30.4557 49.638 29.9219 50.0938C29.388 50.5495 29.1211 51.1159 29.1211 51.793ZM58.7109 65.7773V47.418H60.8984V55.6602H63.7305V57.7109H60.8984V65.7773H58.7109ZM48.3594 50.3281V48.3555H54.9219V50.3281H48.3594ZM45.9375 54.1562V52.2031H56.7969V54.1562H45.9375ZM46.6797 59.4102C46.6797 58.2513 47.1354 57.3073 48.0469 56.5781C48.9714 55.8359 50.1628 55.4648 51.6211 55.4648C53.0794 55.4648 54.2643 55.8294 55.1758 56.5586C56.1003 57.2878 56.5625 58.2383 56.5625 59.4102C56.5625 60.569 56.1003 61.513 55.1758 62.2422C54.2643 62.9714 53.0794 63.3359 51.6211 63.3359C50.1628 63.3359 48.9714 62.9714 48.0469 62.2422C47.1354 61.513 46.6797 60.569 46.6797 59.4102ZM48.8672 59.4102C48.8672 60.0482 49.1406 60.556 49.6875 60.9336C50.2344 61.2982 50.8789 61.4805 51.6211 61.4805C52.3503 61.4805 52.9883 61.2917 53.5352 60.9141C54.082 60.5365 54.3555 60.0352 54.3555 59.4102C54.3555 58.7591 54.0885 58.2513 53.5547 57.8867C53.0208 57.5221 52.3763 57.3398 51.6211 57.3398C50.8529 57.3398 50.2018 57.5286 49.668 57.9062C49.1341 58.2708 48.8672 58.7721 48.8672 59.4102ZM65.2344 63.5508V61.6562H71.6992V55.0352H73.8867V61.6562H83.1055V63.5508H65.2344ZM67.5977 50.9531V49H80.9766C80.9766 52.5026 80.612 55.9076 79.8828 59.2148H77.7148C78.0534 57.7956 78.3203 56.3112 78.5156 54.7617C78.7109 53.2122 78.8086 51.9427 78.8086 50.9531H67.5977ZM92.0898 64.293C92.9492 63.7461 93.7109 63.0365 94.375 62.1641C95.0521 61.2786 95.3906 60.4453 95.3906 59.6641V58.8242H97.5195V59.5078C97.5195 60.224 97.7799 60.9596 98.3008 61.7148C98.8216 62.4701 99.3359 63.0234 99.8438 63.375C100.378 62.9974 100.898 62.444 101.406 61.7148C101.914 60.9727 102.168 60.237 102.168 59.5078V58.8242H104.297V59.6445C104.297 60.4518 104.629 61.3047 105.293 62.2031C105.97 63.0885 106.732 63.7917 107.578 64.3125L106.289 65.6602C105.69 65.2826 105.104 64.7812 104.531 64.1562C103.971 63.5312 103.548 62.9388 103.262 62.3789C102.949 62.9518 102.454 63.5703 101.777 64.2344C101.1 64.8984 100.456 65.3672 99.8438 65.6406C99.2578 65.3802 98.6198 64.9115 97.9297 64.2344C97.2526 63.5703 96.7578 62.9583 96.4453 62.3984C96.1589 62.9323 95.7487 63.5052 95.2148 64.1172C94.694 64.7292 94.1146 65.2435 93.4766 65.6602L92.0898 64.293ZM104.043 58.2969V47.418H106.211V58.2969H104.043ZM90.8984 52.5352C90.8984 51.168 91.3542 50.0677 92.2656 49.2344C93.1901 48.388 94.3815 47.9648 95.8398 47.9648C97.2852 47.9648 98.4701 48.388 99.3945 49.2344C100.332 50.0677 100.801 51.168 100.801 52.5352C100.801 53.9154 100.339 55.0286 99.4141 55.875C98.4896 56.7083 97.2982 57.125 95.8398 57.125C94.3815 57.125 93.1901 56.7083 92.2656 55.875C91.3542 55.0286 90.8984 53.9154 90.8984 52.5352ZM93.0859 52.5352C93.0859 53.3685 93.3398 54.0521 93.8477 54.5859C94.3555 55.1198 95.0195 55.3867 95.8398 55.3867C96.6602 55.3867 97.3242 55.1198 97.832 54.5859C98.3398 54.0391 98.5938 53.3555 98.5938 52.5352C98.5938 51.7279 98.3398 51.0573 97.832 50.5234C97.3242 49.9766 96.6602 49.7031 95.8398 49.7031C95.0326 49.7031 94.3685 49.9766 93.8477 50.5234C93.3398 51.0573 93.0859 51.7279 93.0859 52.5352ZM122.324 65.7773V47.418H124.512V54.7031H127.441V56.8125H124.512V65.7773H122.324ZM111.094 61.7148V49.1367H119.609V51.0117H113.223V59.8203H113.652C116.139 59.8203 118.62 59.6576 121.094 59.332V61.0898C118.229 61.5065 115.13 61.7148 111.797 61.7148H111.094ZM130.43 64V61.207H133.438V64H130.43Z" fill="#010101"/>
</svg>
