<svg width="266" height="113" viewBox="0 0 266 113" fill="none" xmlns="http://www.w3.org/2000/svg">
<rect x="1.5" y="1.5" width="263" height="110" fill="#FFFF00"/>
<rect x="1.5" y="1.5" width="263" height="110" stroke="black" stroke-width="3"/>
<path d="M27.1289 25.082V23.0703C27.1289 20.9609 27.8385 19.3594 29.2578 18.2656L30.4102 19.2227C29.8893 19.6523 29.5247 20.1081 29.3164 20.5898C29.1081 21.0586 29.0039 21.6641 29.0039 22.4062H30.3125V25.082H27.1289ZM42.5391 31.7812V29.8477H47.2266V25.2383H42.5391V23.3047H47.2266V19.418H49.4141V37.7773H47.2266V31.7812H42.5391ZM34.1992 27.5625C34.1992 25.4271 34.6094 23.6953 35.4297 22.3672C36.25 21.026 37.3958 20.3555 38.8672 20.3555C40.3255 20.3555 41.4648 21.0195 42.2852 22.3477C43.1185 23.6758 43.5352 25.4141 43.5352 27.5625C43.5352 29.7109 43.125 31.4492 42.3047 32.7773C41.4844 34.1055 40.3385 34.7695 38.8672 34.7695C37.3958 34.7695 36.25 34.1055 35.4297 32.7773C34.6094 31.4492 34.1992 29.7109 34.1992 27.5625ZM36.4062 27.5625C36.4062 28.5521 36.4844 29.431 36.6406 30.1992C36.8099 30.9674 37.0833 31.599 37.4609 32.0938C37.8385 32.5885 38.3073 32.8359 38.8672 32.8359C39.7005 32.8359 40.319 32.3411 40.7227 31.3516C41.1263 30.349 41.3281 29.0859 41.3281 27.5625C41.3281 26.013 41.1263 24.75 40.7227 23.7734C40.332 22.7969 39.7135 22.3086 38.8672 22.3086C38.0208 22.3086 37.3958 22.8034 36.9922 23.793C36.6016 24.7695 36.4062 26.026 36.4062 27.5625ZM66.5625 37.7773V19.418H68.7695V37.7773H66.5625ZM53.457 33.793C55.6966 32.3997 57.4674 30.7266 58.7695 28.7734C60.0846 26.8203 60.7552 24.9258 60.7812 23.0898H54.4727V21.1367H63.0664C63.0664 26.944 60.3646 31.6315 54.9609 35.1992L53.457 33.793ZM82.0508 27.9727V25.9219H86.4258V19.418H88.6328V37.7773H86.4258V27.9727H82.0508ZM72.1484 33.9688C72.8125 33.4609 73.4245 32.8945 73.9844 32.2695C74.5443 31.6445 75.0846 30.9089 75.6055 30.0625C76.1263 29.2031 76.5365 28.2135 76.8359 27.0938C77.1354 25.974 77.2852 24.7891 77.2852 23.5391V20.4531H79.4141V23.4609C79.4141 25.6354 79.8893 27.6081 80.8398 29.3789C81.7904 31.1497 82.8906 32.5104 84.1406 33.4609L82.5781 34.7891C81.8229 34.2292 81.0091 33.3438 80.1367 32.1328C79.2643 30.9219 78.6719 29.7956 78.3594 28.7539C78.0469 29.8607 77.4414 31.0391 76.543 32.2891C75.6445 33.526 74.7396 34.5352 73.8281 35.3164L72.1484 33.9688ZM94.9023 37.25V31.4688H97.0508V35.3555H108.066V37.25H94.9023ZM92.1484 30.1797V28.3633H110.02V30.1797H92.1484ZM94.8633 25.7852V19.7109H97.0312V24.0078H107.988V25.7852H94.8633ZM120.605 37.25V31.4883H122.773V35.3359H133.672V37.25H120.605ZM130.898 32.8164V19.418H133.086V32.8164H130.898ZM117.148 29.5156C117.721 29.2422 118.275 28.9297 118.809 28.5781C119.355 28.2266 119.902 27.8034 120.449 27.3086C120.996 26.8138 121.439 26.2474 121.777 25.6094C122.129 24.9583 122.318 24.2812 122.344 23.5781V22.5234H118.223V20.6289H128.809V22.5234H124.727L124.746 23.5391C124.772 24.3464 125.072 25.1536 125.645 25.9609C126.23 26.7552 126.849 27.3997 127.5 27.8945C128.164 28.3893 128.848 28.8125 129.551 29.1641L128.34 30.5703C127.48 30.1667 126.582 29.5872 125.645 28.832C124.72 28.0768 124.03 27.3151 123.574 26.5469C123.171 27.3411 122.461 28.1745 121.445 29.0469C120.43 29.9062 119.427 30.5443 118.438 30.9609L117.148 29.5156ZM138.984 37.5234V32.8359H149.707V31.4492H138.867V29.7109H151.855V34.3398H141.133V35.8047H152.285V37.5234H138.984ZM136.406 28.3242V26.6445H144.297V24.2812H146.465V26.6445H154.277V28.3242H136.406ZM137.441 23.8125C138.548 23.5391 139.59 23.207 140.566 22.8164C141.556 22.4258 142.428 21.944 143.184 21.3711C143.939 20.7982 144.316 20.2188 144.316 19.6328V19.3398H146.465V19.6328C146.465 20.2057 146.855 20.7852 147.637 21.3711C148.418 21.957 149.297 22.4453 150.273 22.8359C151.263 23.2135 152.279 23.5326 153.32 23.793L152.383 25.3945C151.159 25.1341 149.857 24.6914 148.477 24.0664C147.109 23.4414 146.081 22.7448 145.391 21.9766C144.727 22.7448 143.737 23.4349 142.422 24.0469C141.107 24.6458 139.759 25.1081 138.379 25.4336L137.441 23.8125ZM169.258 37.7773V19.418H171.445V27.6602H174.277V29.7109H171.445V37.7773H169.258ZM158.906 22.3281V20.3555H165.469V22.3281H158.906ZM156.484 26.1562V24.2031H167.344V26.1562H156.484ZM157.227 31.4102C157.227 30.2513 157.682 29.3073 158.594 28.5781C159.518 27.8359 160.71 27.4648 162.168 27.4648C163.626 27.4648 164.811 27.8294 165.723 28.5586C166.647 29.2878 167.109 30.2383 167.109 31.4102C167.109 32.569 166.647 33.513 165.723 34.2422C164.811 34.9714 163.626 35.3359 162.168 35.3359C160.71 35.3359 159.518 34.9714 158.594 34.2422C157.682 33.513 157.227 32.569 157.227 31.4102ZM159.414 31.4102C159.414 32.0482 159.688 32.556 160.234 32.9336C160.781 33.2982 161.426 33.4805 162.168 33.4805C162.897 33.4805 163.535 33.2917 164.082 32.9141C164.629 32.5365 164.902 32.0352 164.902 31.4102C164.902 30.7591 164.635 30.2513 164.102 29.8867C163.568 29.5221 162.923 29.3398 162.168 29.3398C161.4 29.3398 160.749 29.5286 160.215 29.9062C159.681 30.2708 159.414 30.7721 159.414 31.4102ZM190.273 37.7773V19.418H192.363V37.7773H190.273ZM183.438 28.8711V26.8008H186.27V19.9258H188.262V36.957H186.27V28.8711H183.438ZM176.27 33.832C178.132 32.3086 179.518 30.5898 180.43 28.6758C181.341 26.7617 181.81 24.9062 181.836 23.1094H177.051V21.1953H184.102C184.102 26.8073 182.038 31.4427 177.91 35.1016L176.27 33.832ZM196.27 25.1992L198.066 19.0859H200.684L198.027 25.1992H196.27ZM215.391 37.7773V19.418H217.598V26.8008H220.43V28.9102H217.598V37.7773H215.391ZM203.613 34.3984V26.7227H210.176V22.8359H203.535V21H212.227V28.5391H205.664V32.543H206.133C208.685 32.543 211.367 32.3802 214.18 32.0547V33.793C211.029 34.1966 207.728 34.3984 204.277 34.3984H203.613ZM224.746 37.25V31.4688H226.895V35.3555H237.91V37.25H224.746ZM221.992 30.1797V28.3633H239.863V30.1797H221.992ZM224.707 25.7852V19.7109H226.875V24.0078H237.832V25.7852H224.707ZM29.5312 65.5039V57.8672H31.6602V59.7617H40.1562V57.8672H42.2852V65.5039H29.5312ZM31.6602 63.668H40.1562V61.4609H31.6602V63.668ZM36.1328 52.9844V51.0508H40.0977V47.418H42.2656V57.2422H40.0977V52.9844H36.1328ZM25.7031 56.0508C26.3281 55.7383 26.9076 55.3997 27.4414 55.0352C27.9883 54.6576 28.5352 54.2018 29.082 53.668C29.6419 53.1211 30.0846 52.4961 30.4102 51.793C30.7357 51.0768 30.8984 50.3216 30.8984 49.5273V47.8672H33.0273V49.4883C33.0273 50.2044 33.1836 50.901 33.4961 51.5781C33.8086 52.2552 34.2122 52.8542 34.707 53.375C35.2148 53.8958 35.7227 54.3451 36.2305 54.7227C36.7513 55.1003 37.2786 55.4193 37.8125 55.6797L36.5625 57.125C35.7943 56.7734 34.9414 56.2005 34.0039 55.4062C33.0664 54.612 32.3893 53.8307 31.9727 53.0625C31.543 53.9089 30.8398 54.7487 29.8633 55.582C28.8997 56.4023 27.9427 57.0469 26.9922 57.5156L25.7031 56.0508ZM48.8477 61.1484V59.293H61.9141V65.9141H59.7656V61.1484H48.8477ZM59.7461 58.4727V47.418H61.9141V58.4727H59.7461ZM45.4297 56.2656C46.0807 55.9401 46.6992 55.5625 47.2852 55.1328C47.8841 54.7031 48.457 54.2083 49.0039 53.6484C49.5508 53.0885 49.987 52.4505 50.3125 51.7344C50.638 51.0182 50.8008 50.276 50.8008 49.5078V48.043H52.9492V49.4688C52.9492 50.0677 53.0664 50.6667 53.3008 51.2656C53.5482 51.8516 53.8542 52.3659 54.2188 52.8086C54.5833 53.2513 55 53.681 55.4688 54.0977C55.9505 54.5013 56.3997 54.8398 56.8164 55.1133C57.2331 55.3737 57.6497 55.6081 58.0664 55.8164L56.7969 57.3008C56.0156 56.9232 55.1237 56.3177 54.1211 55.4844C53.1185 54.651 52.3828 53.8177 51.9141 52.9844C51.4453 53.8828 50.7161 54.7747 49.7266 55.6602C48.737 56.5326 47.7474 57.2227 46.7578 57.7305L45.4297 56.2656ZM67.9688 62.1055C67.9688 60.9727 68.5807 60.0872 69.8047 59.4492C71.0286 58.7982 72.6367 58.4727 74.6289 58.4727C76.6471 58.4727 78.2617 58.7917 79.4727 59.4297C80.6966 60.0677 81.3086 60.9596 81.3086 62.1055C81.3086 63.2383 80.6901 64.1237 79.4531 64.7617C78.2161 65.4128 76.6081 65.7318 74.6289 65.7188C72.6237 65.7057 71.0091 65.3802 69.7852 64.7422C68.5742 64.1172 67.9688 63.2383 67.9688 62.1055ZM70.3125 62.1055C70.3125 62.6784 70.6901 63.1211 71.4453 63.4336C72.2135 63.7461 73.2747 63.9023 74.6289 63.9023C75.931 63.9023 76.9792 63.7461 77.7734 63.4336C78.5807 63.1081 78.9844 62.6654 78.9844 62.1055C78.9844 61.5195 78.5938 61.0703 77.8125 60.7578C77.0312 60.4453 75.9701 60.2891 74.6289 60.2891C73.2878 60.2891 72.2331 60.4518 71.4648 60.7773C70.6966 61.0898 70.3125 61.5326 70.3125 62.1055ZM78.6133 58.5312V47.418H80.7812V52.2617H83.125V54.2148H80.7812V58.5312H78.6133ZM65.1953 56.7148C65.7682 56.4544 66.3216 56.1549 66.8555 55.8164C67.4023 55.4648 67.9297 55.0677 68.4375 54.625C68.9583 54.1693 69.3815 53.668 69.707 53.1211C70.0456 52.5612 70.2409 51.9948 70.293 51.4219V50.25H66.2695V48.4141H76.6602V50.25H72.7148V51.3438C72.806 52.2943 73.3008 53.1862 74.1992 54.0195C75.1107 54.8398 76.1263 55.5169 77.2461 56.0508L76.0156 57.4766C75.1953 57.125 74.3424 56.6042 73.457 55.9141C72.5846 55.224 71.9531 54.5469 71.5625 53.8828C71.1458 54.612 70.4753 55.3802 69.5508 56.1875C68.6263 56.9818 67.6042 57.6393 66.4844 58.1602L65.1953 56.7148ZM95.3516 64.957V47.9258H97.3242V54.6641H99.4141V47.418H101.504V65.7773H99.4141V56.7148H97.3242V64.957H95.3516ZM85.7227 55.582C85.7227 53.4857 86.0612 51.7995 86.7383 50.5234C87.4284 49.2344 88.4245 48.5898 89.7266 48.5898C91.0156 48.5898 91.9987 49.2344 92.6758 50.5234C93.3659 51.7995 93.7109 53.4857 93.7109 55.582C93.7109 57.6914 93.3724 59.3841 92.6953 60.6602C92.0182 61.9362 91.0286 62.5742 89.7266 62.5742C88.4115 62.5742 87.4154 61.9362 86.7383 60.6602C86.0612 59.3841 85.7227 57.6914 85.7227 55.582ZM87.8711 55.582C87.8711 58.9544 88.4896 60.6406 89.7266 60.6406C90.9505 60.6406 91.5625 58.9544 91.5625 55.582C91.5625 52.1966 90.9505 50.5039 89.7266 50.5039C88.4896 50.5039 87.8711 52.1966 87.8711 55.582ZM119.727 64.957V47.9258H121.699V54.7422H123.945V47.418H126.055V65.7773H123.945V56.8125H121.699V64.957H119.727ZM109.863 61.7734C111.764 60.263 113.197 58.5573 114.16 56.6562C115.124 54.7552 115.618 52.9128 115.645 51.1289H110.684V49.2148H117.91C117.91 54.8008 115.768 59.4167 111.484 63.0625L109.863 61.7734ZM133.066 65.25V59.5078H135.234V63.3359H146.113V65.25H133.066ZM143.359 60.8359V47.418H145.547V60.8359H143.359ZM130.234 52.9258C130.234 51.5065 130.703 50.3607 131.641 49.4883C132.591 48.6029 133.809 48.1602 135.293 48.1602C136.764 48.1602 137.975 48.6029 138.926 49.4883C139.889 50.3607 140.371 51.5065 140.371 52.9258C140.371 54.3581 139.896 55.5104 138.945 56.3828C138.008 57.2422 136.79 57.6719 135.293 57.6719C133.783 57.6719 132.559 57.2422 131.621 56.3828C130.697 55.5104 130.234 54.3581 130.234 52.9258ZM132.441 52.9258C132.441 53.7982 132.702 54.5208 133.223 55.0938C133.757 55.6536 134.447 55.9336 135.293 55.9336C136.152 55.9336 136.842 55.6471 137.363 55.0742C137.897 54.5013 138.164 53.7852 138.164 52.9258C138.164 52.0664 137.897 51.3503 137.363 50.7773C136.842 50.2044 136.152 49.918 135.293 49.918C134.46 49.918 133.776 50.2044 133.242 50.7773C132.708 51.3503 132.441 52.0664 132.441 52.9258ZM153.75 59.8789V57.9648H171.621V59.8789H167.148V65.7969H165V59.8789H160.469V65.7969H158.301V59.8789H153.75ZM155.762 51.8125C155.762 50.5625 156.426 49.599 157.754 48.9219C159.095 48.2318 160.755 47.8867 162.734 47.8867C163.984 47.8867 165.124 48.0299 166.152 48.3164C167.194 48.5898 168.047 49.0326 168.711 49.6445C169.375 50.2565 169.707 50.9792 169.707 51.8125C169.707 52.6458 169.375 53.3685 168.711 53.9805C168.06 54.5924 167.214 55.0417 166.172 55.3281C165.143 55.6146 163.997 55.7578 162.734 55.7578C160.742 55.7578 159.082 55.4128 157.754 54.7227C156.426 54.0326 155.762 53.0625 155.762 51.8125ZM158.164 51.8125C158.164 52.5286 158.613 53.082 159.512 53.4727C160.41 53.8633 161.484 54.0586 162.734 54.0586C164.01 54.0586 165.091 53.8633 165.977 53.4727C166.862 53.069 167.305 52.5156 167.305 51.8125C167.305 51.1094 166.862 50.5625 165.977 50.1719C165.091 49.7812 164.01 49.5859 162.734 49.5859C161.51 49.5859 160.443 49.7878 159.531 50.1914C158.62 50.582 158.164 51.1224 158.164 51.8125ZM173.438 60.7969V58.9805H191.309V60.7969H183.516V65.7969H181.309V60.7969H173.438ZM176.055 57.0664V48.1016H189.082V49.8594H178.281V51.7734H188.926V53.3945H178.281V55.3086H189.219V57.0664H176.055ZM193.125 63.6484V61.7539H210.996V63.6484H193.125ZM195.723 58.5117V48.6289H197.871V51.7344H206.367V48.6289H208.535V58.5117H195.723ZM197.871 56.6562H206.367V53.5312H197.871V56.6562ZM215.391 65.5039V61.2852H226.074V60.0938H215.293V58.5117H228.223V62.6719H217.539V63.9023H228.672V65.5039H215.391ZM212.812 57.2812V55.6992H230.684V57.2812H212.812ZM215.352 54.5078V50.4062H226.074V49.2539H215.234V47.6719H228.242V51.7539H217.52V52.9453H228.574V54.5078H215.352ZM28.4766 93.25V88.0547H30.6445V91.3945H41.6406V93.25H28.4766ZM25.8594 86.2578V84.4023H43.7305V86.2578H36.2891V89.7344H34.1406V86.2578H25.8594ZM27.9297 79.2266C27.9297 78.4583 28.2552 77.8073 28.9062 77.2734C29.5573 76.7396 30.3906 76.3555 31.4062 76.1211C32.4349 75.8737 33.5807 75.75 34.8438 75.75C36.0938 75.75 37.2266 75.8737 38.2422 76.1211C39.2708 76.3555 40.1172 76.7461 40.7812 77.293C41.4453 77.8268 41.7773 78.4714 41.7773 79.2266C41.7773 79.9818 41.4453 80.6328 40.7812 81.1797C40.1172 81.7266 39.2708 82.1237 38.2422 82.3711C37.2266 82.6185 36.0938 82.7422 34.8438 82.7422C33.5547 82.7422 32.3958 82.6185 31.3672 82.3711C30.3516 82.1107 29.5247 81.7135 28.8867 81.1797C28.2487 80.6328 27.9297 79.9818 27.9297 79.2266ZM30.3125 79.2266C30.3125 79.8255 30.7552 80.2812 31.6406 80.5938C32.5391 80.9062 33.6068 81.0625 34.8438 81.0625C36.1068 81.0625 37.181 80.9062 38.0664 80.5938C38.9518 80.2812 39.3945 79.8255 39.3945 79.2266C39.3945 78.6406 38.9518 78.1914 38.0664 77.8789C37.181 77.5664 36.1068 77.4102 34.8438 77.4102C33.6328 77.4102 32.5716 77.5664 31.6602 77.8789C30.7617 78.1914 30.3125 78.6406 30.3125 79.2266ZM48.7109 90.1836C48.7109 89.0638 49.3359 88.1914 50.5859 87.5664C51.8359 86.9284 53.4766 86.6094 55.5078 86.6094C57.5651 86.6094 59.2188 86.9219 60.4688 87.5469C61.7318 88.1719 62.3633 89.0508 62.3633 90.1836C62.3633 91.2904 61.7253 92.1562 60.4492 92.7812C59.1862 93.4062 57.5391 93.7188 55.5078 93.7188C53.4635 93.7188 51.8164 93.4062 50.5664 92.7812C49.3294 92.1693 48.7109 91.3034 48.7109 90.1836ZM51.0547 90.1836C51.0547 90.7435 51.4388 91.1732 52.207 91.4727C52.9883 91.7591 54.0885 91.9023 55.5078 91.9023C56.862 91.9023 57.9492 91.7526 58.7695 91.4531C59.6029 91.1536 60.0195 90.7305 60.0195 90.1836C60.0195 89.5977 59.6094 89.1549 58.7891 88.8555C57.9818 88.556 56.888 88.4062 55.5078 88.4062C54.1016 88.4062 53.0078 88.5625 52.2266 88.875C51.4453 89.1745 51.0547 89.6107 51.0547 90.1836ZM54.7266 83.6797V81.8828H59.7852V79.2266H54.7266V77.4297H59.7852V75.418H61.9531V86.6875H59.7852V83.6797H54.7266ZM46.4844 80.5547C46.4844 79.2135 46.9336 78.1263 47.832 77.293C48.7435 76.4596 49.9154 76.043 51.3477 76.043C52.7669 76.043 53.9323 76.4596 54.8438 77.293C55.7552 78.1133 56.2109 79.2005 56.2109 80.5547C56.2109 81.9219 55.7552 83.0221 54.8438 83.8555C53.9453 84.6758 52.7799 85.0859 51.3477 85.0859C49.9023 85.0859 48.7305 84.6758 47.832 83.8555C46.9336 83.0221 46.4844 81.9219 46.4844 80.5547ZM48.6719 80.5547C48.6719 81.375 48.9128 82.0521 49.3945 82.5859C49.8893 83.1068 50.5404 83.3672 51.3477 83.3672C52.1419 83.3672 52.7865 83.1003 53.2812 82.5664C53.776 82.0326 54.0234 81.362 54.0234 80.5547C54.0234 79.7474 53.776 79.0833 53.2812 78.5625C52.7865 78.0286 52.1419 77.7617 51.3477 77.7617C50.5534 77.7617 49.9089 78.0286 49.4141 78.5625C48.9193 79.0964 48.6719 79.7604 48.6719 80.5547ZM72.207 90.4766C72.207 89.4349 72.832 88.6341 74.082 88.0742C75.332 87.5013 76.9987 87.2148 79.082 87.2148C81.1654 87.2148 82.8385 87.4948 84.1016 88.0547C85.3776 88.6146 86.0156 89.4219 86.0156 90.4766C86.0156 91.5052 85.3776 92.2995 84.1016 92.8594C82.8255 93.4323 81.1523 93.7188 79.082 93.7188C76.9987 93.7188 75.332 93.4388 74.082 92.8789C72.832 92.319 72.207 91.5182 72.207 90.4766ZM74.5898 90.4766C74.5898 91.4922 76.0938 92 79.1016 92C80.4688 92 81.5625 91.8698 82.3828 91.6094C83.2161 91.349 83.6328 90.9714 83.6328 90.4766C83.6328 89.4479 82.1224 88.9336 79.1016 88.9336C77.6823 88.9336 76.5755 89.0638 75.7812 89.3242C74.987 89.5846 74.5898 89.9688 74.5898 90.4766ZM70.1172 85.3594V83.6016H87.9883V85.3594H80.1367V87.7422H78.0273V85.3594H70.1172ZM71.3867 81.4531C72.819 81.1797 74.2057 80.737 75.5469 80.125C76.888 79.5 77.6432 78.8229 77.8125 78.0938V77.6055H72.5781V75.8477H85.625V77.6055H80.4688V78.0938C80.612 78.8099 81.3477 79.4805 82.6758 80.1055C84.0039 80.7305 85.3906 81.1797 86.8359 81.4531L85.9766 82.957C84.6224 82.7227 83.3073 82.319 82.0312 81.7461C80.7552 81.1732 79.7917 80.5352 79.1406 79.832C78.5547 80.4831 77.6107 81.1016 76.3086 81.6875C75.0065 82.2734 73.6654 82.7096 72.2852 82.9961L71.3867 81.4531ZM103.848 93.7773V75.418H106.055V93.7773H103.848ZM91.0352 83.5234C91.0352 81.401 91.4518 79.6823 92.2852 78.3672C93.1315 77.0391 94.2904 76.375 95.7617 76.375C97.2331 76.375 98.3854 77.0391 99.2188 78.3672C100.052 79.6823 100.469 81.401 100.469 83.5234C100.469 85.6589 100.052 87.3906 99.2188 88.7188C98.3984 90.0339 97.2461 90.6914 95.7617 90.6914C94.2773 90.6914 93.1185 90.0339 92.2852 88.7188C91.4518 87.3906 91.0352 85.6589 91.0352 83.5234ZM93.2422 83.5234C93.2422 85.0469 93.4505 86.2969 93.8672 87.2734C94.2839 88.25 94.9154 88.7383 95.7617 88.7383C96.6081 88.7383 97.2331 88.25 97.6367 87.2734C98.0534 86.2839 98.2617 85.0339 98.2617 83.5234C98.2617 82.5339 98.1836 81.6615 98.0273 80.9062C97.8711 80.151 97.5977 79.5326 97.207 79.0508C96.8294 78.556 96.3477 78.3086 95.7617 78.3086C95.319 78.3086 94.9284 78.4518 94.5898 78.7383C94.2643 79.0117 94.0039 79.3958 93.8086 79.8906C93.6263 80.3854 93.4831 80.9388 93.3789 81.5508C93.2878 82.1497 93.2422 82.8073 93.2422 83.5234ZM122.324 93.7773V75.418H124.512V82.7031H127.441V84.8125H124.512V93.7773H122.324ZM111.094 89.7148V77.1367H119.609V79.0117H113.223V87.8203H113.652C116.139 87.8203 118.62 87.6576 121.094 87.332V89.0898C118.229 89.5065 115.13 89.7148 111.797 89.7148H111.094ZM130.43 92V89.207H133.438V92H130.43Z" fill="#010101"/>
</svg>
