<svg width="233" height="85" viewBox="0 0 233 85" fill="none" xmlns="http://www.w3.org/2000/svg">
<rect x="1.5" y="1.5" width="230" height="82" fill="#FFFF00"/>
<rect x="1.5" y="1.5" width="230" height="82" stroke="black" stroke-width="3"/>
<path d="M29.5312 37.5039V29.8672H31.6602V31.7617H40.1562V29.8672H42.2852V37.5039H29.5312ZM31.6602 35.668H40.1562V33.4609H31.6602V35.668ZM36.1328 24.9844V23.0508H40.0977V19.418H42.2656V29.2422H40.0977V24.9844H36.1328ZM25.7031 28.0508C26.3281 27.7383 26.9076 27.3997 27.4414 27.0352C27.9883 26.6576 28.5352 26.2018 29.082 25.668C29.6419 25.1211 30.0846 24.4961 30.4102 23.793C30.7357 23.0768 30.8984 22.3216 30.8984 21.5273V19.8672H33.0273V21.4883C33.0273 22.2044 33.1836 22.901 33.4961 23.5781C33.8086 24.2552 34.2122 24.8542 34.707 25.375C35.2148 25.8958 35.7227 26.3451 36.2305 26.7227C36.7513 27.1003 37.2786 27.4193 37.8125 27.6797L36.5625 29.125C35.7943 28.7734 34.9414 28.2005 34.0039 27.4062C33.0664 26.612 32.3893 25.8307 31.9727 25.0625C31.543 25.9089 30.8398 26.7487 29.8633 27.582C28.8997 28.4023 27.9427 29.0469 26.9922 29.5156L25.7031 28.0508ZM48.8477 33.1484V31.293H61.9141V37.9141H59.7656V33.1484H48.8477ZM59.7461 30.4727V19.418H61.9141V30.4727H59.7461ZM45.4297 28.2656C46.0807 27.9401 46.6992 27.5625 47.2852 27.1328C47.8841 26.7031 48.457 26.2083 49.0039 25.6484C49.5508 25.0885 49.987 24.4505 50.3125 23.7344C50.638 23.0182 50.8008 22.276 50.8008 21.5078V20.043H52.9492V21.4688C52.9492 22.0677 53.0664 22.6667 53.3008 23.2656C53.5482 23.8516 53.8542 24.3659 54.2188 24.8086C54.5833 25.2513 55 25.681 55.4688 26.0977C55.9505 26.5013 56.3997 26.8398 56.8164 27.1133C57.2331 27.3737 57.6497 27.6081 58.0664 27.8164L56.7969 29.3008C56.0156 28.9232 55.1237 28.3177 54.1211 27.4844C53.1185 26.651 52.3828 25.8177 51.9141 24.9844C51.4453 25.8828 50.7161 26.7747 49.7266 27.6602C48.737 28.5326 47.7474 29.2227 46.7578 29.7305L45.4297 28.2656ZM67.9688 34.1055C67.9688 32.9727 68.5807 32.0872 69.8047 31.4492C71.0286 30.7982 72.6367 30.4727 74.6289 30.4727C76.6471 30.4727 78.2617 30.7917 79.4727 31.4297C80.6966 32.0677 81.3086 32.9596 81.3086 34.1055C81.3086 35.2383 80.6901 36.1237 79.4531 36.7617C78.2161 37.4128 76.6081 37.7318 74.6289 37.7188C72.6237 37.7057 71.0091 37.3802 69.7852 36.7422C68.5742 36.1172 67.9688 35.2383 67.9688 34.1055ZM70.3125 34.1055C70.3125 34.6784 70.6901 35.1211 71.4453 35.4336C72.2135 35.7461 73.2747 35.9023 74.6289 35.9023C75.931 35.9023 76.9792 35.7461 77.7734 35.4336C78.5807 35.1081 78.9844 34.6654 78.9844 34.1055C78.9844 33.5195 78.5938 33.0703 77.8125 32.7578C77.0312 32.4453 75.9701 32.2891 74.6289 32.2891C73.2878 32.2891 72.2331 32.4518 71.4648 32.7773C70.6966 33.0898 70.3125 33.5326 70.3125 34.1055ZM78.6133 30.5312V19.418H80.7812V24.2617H83.125V26.2148H80.7812V30.5312H78.6133ZM65.1953 28.7148C65.7682 28.4544 66.3216 28.1549 66.8555 27.8164C67.4023 27.4648 67.9297 27.0677 68.4375 26.625C68.9583 26.1693 69.3815 25.668 69.707 25.1211C70.0456 24.5612 70.2409 23.9948 70.293 23.4219V22.25H66.2695V20.4141H76.6602V22.25H72.7148V23.3438C72.806 24.2943 73.3008 25.1862 74.1992 26.0195C75.1107 26.8398 76.1263 27.5169 77.2461 28.0508L76.0156 29.4766C75.1953 29.125 74.3424 28.6042 73.457 27.9141C72.5846 27.224 71.9531 26.5469 71.5625 25.8828C71.1458 26.612 70.4753 27.3802 69.5508 28.1875C68.6263 28.9818 67.6042 29.6393 66.4844 30.1602L65.1953 28.7148ZM95.3516 36.957V19.9258H97.3242V26.6641H99.4141V19.418H101.504V37.7773H99.4141V28.7148H97.3242V36.957H95.3516ZM85.7227 27.582C85.7227 25.4857 86.0612 23.7995 86.7383 22.5234C87.4284 21.2344 88.4245 20.5898 89.7266 20.5898C91.0156 20.5898 91.9987 21.2344 92.6758 22.5234C93.3659 23.7995 93.7109 25.4857 93.7109 27.582C93.7109 29.6914 93.3724 31.3841 92.6953 32.6602C92.0182 33.9362 91.0286 34.5742 89.7266 34.5742C88.4115 34.5742 87.4154 33.9362 86.7383 32.6602C86.0612 31.3841 85.7227 29.6914 85.7227 27.582ZM87.8711 27.582C87.8711 30.9544 88.4896 32.6406 89.7266 32.6406C90.9505 32.6406 91.5625 30.9544 91.5625 27.582C91.5625 24.1966 90.9505 22.5039 89.7266 22.5039C88.4896 22.5039 87.8711 24.1966 87.8711 27.582ZM112.227 33.9883C112.227 32.8164 112.839 31.8919 114.062 31.2148C115.286 30.5378 116.895 30.1992 118.887 30.1992C120.905 30.1992 122.52 30.5378 123.73 31.2148C124.954 31.8789 125.566 32.8034 125.566 33.9883C125.566 35.1602 124.948 36.0781 123.711 36.7422C122.474 37.4062 120.866 37.7318 118.887 37.7188C116.868 37.7057 115.254 37.3737 114.043 36.7227C112.832 36.0716 112.227 35.1602 112.227 33.9883ZM114.551 33.9883C114.551 34.5872 114.928 35.056 115.684 35.3945C116.452 35.7201 117.52 35.8828 118.887 35.8828C120.202 35.8828 121.257 35.7135 122.051 35.375C122.845 35.0365 123.242 34.5742 123.242 33.9883C123.242 33.3633 122.852 32.888 122.07 32.5625C121.289 32.224 120.228 32.0547 118.887 32.0547C117.533 32.0547 116.471 32.224 115.703 32.5625C114.935 32.901 114.551 33.3763 114.551 33.9883ZM122.871 30.2773V19.418H125.039V24.0859H127.539V26.0586H125.039V30.2773H122.871ZM108.984 28.1875C110.43 27.4323 111.667 26.4688 112.695 25.2969C113.737 24.125 114.258 22.8555 114.258 21.4883V19.8867H116.406V21.4492C116.406 22.1133 116.562 22.7773 116.875 23.4414C117.201 24.0924 117.617 24.6784 118.125 25.1992C118.633 25.707 119.147 26.1562 119.668 26.5469C120.189 26.9245 120.71 27.2435 121.23 27.5039L119.961 28.9883C119.141 28.5716 118.275 27.9727 117.363 27.1914C116.465 26.3971 115.814 25.6159 115.41 24.8477C114.993 25.7331 114.29 26.625 113.301 27.5234C112.311 28.4089 111.322 29.125 110.332 29.6719L108.984 28.1875ZM132.363 37.5039V30.4727H144.707V37.5039H132.363ZM134.512 35.6094H142.559V32.3672H134.512V35.6094ZM142.559 29.5742V19.418H144.727V23.6367H147.07V25.6094H144.727V29.5742H142.559ZM130.41 28.1094V20.3555H140.039V22.1328H132.5V26.332H132.773C135.846 26.332 138.743 26.1497 141.465 25.7852V27.4844C138.47 27.901 135.072 28.1094 131.27 28.1094H130.41ZM161.895 37.7773V19.418H164.082V26.8984H166.934V29.0078H164.082V37.7773H161.895ZM148.848 33.6562C149.434 33.2526 149.98 32.8034 150.488 32.3086C150.996 31.8138 151.517 31.2083 152.051 30.4922C152.585 29.776 153.008 28.9427 153.32 27.9922C153.646 27.0286 153.809 26.013 153.809 24.9453V23.1484H149.922V21.1367H159.902V23.1484H156.016V24.8867C156.016 25.8242 156.172 26.7487 156.484 27.6602C156.81 28.5586 157.22 29.3659 157.715 30.082C158.223 30.7852 158.724 31.3971 159.219 31.918C159.714 32.4258 160.215 32.8685 160.723 33.2461L159.238 34.6133C158.47 34.0273 157.663 33.2201 156.816 32.1914C155.97 31.1628 155.352 30.1732 154.961 29.2227C154.648 30.1862 154.023 31.2539 153.086 32.4258C152.161 33.5846 151.263 34.457 150.391 35.043L148.848 33.6562ZM182.598 37.7773V19.418H184.805V37.7773H182.598ZM169.785 27.5234C169.785 25.401 170.202 23.6823 171.035 22.3672C171.882 21.0391 173.04 20.375 174.512 20.375C175.983 20.375 177.135 21.0391 177.969 22.3672C178.802 23.6823 179.219 25.401 179.219 27.5234C179.219 29.6589 178.802 31.3906 177.969 32.7188C177.148 34.0339 175.996 34.6914 174.512 34.6914C173.027 34.6914 171.868 34.0339 171.035 32.7188C170.202 31.3906 169.785 29.6589 169.785 27.5234ZM171.992 27.5234C171.992 29.0469 172.201 30.2969 172.617 31.2734C173.034 32.25 173.665 32.7383 174.512 32.7383C175.358 32.7383 175.983 32.25 176.387 31.2734C176.803 30.2839 177.012 29.0339 177.012 27.5234C177.012 26.5339 176.934 25.6615 176.777 24.9062C176.621 24.151 176.348 23.5326 175.957 23.0508C175.579 22.556 175.098 22.3086 174.512 22.3086C174.069 22.3086 173.678 22.4518 173.34 22.7383C173.014 23.0117 172.754 23.3958 172.559 23.8906C172.376 24.3854 172.233 24.9388 172.129 25.5508C172.038 26.1497 171.992 26.8073 171.992 27.5234ZM201.27 37.7773V19.418H203.457V26.8984H206.309V29.0078H203.457V37.7773H201.27ZM188.223 33.6562C188.809 33.2526 189.355 32.8034 189.863 32.3086C190.371 31.8138 190.892 31.2083 191.426 30.4922C191.96 29.776 192.383 28.9427 192.695 27.9922C193.021 27.0286 193.184 26.013 193.184 24.9453V23.1484H189.297V21.1367H199.277V23.1484H195.391V24.8867C195.391 25.8242 195.547 26.7487 195.859 27.6602C196.185 28.5586 196.595 29.3659 197.09 30.082C197.598 30.7852 198.099 31.3971 198.594 31.918C199.089 32.4258 199.59 32.8685 200.098 33.2461L198.613 34.6133C197.845 34.0273 197.038 33.2201 196.191 32.1914C195.345 31.1628 194.727 30.1732 194.336 29.2227C194.023 30.1862 193.398 31.2539 192.461 32.4258C191.536 33.5846 190.638 34.457 189.766 35.043L188.223 33.6562ZM29.0234 62.1836C29.0234 61.0638 29.6484 60.1914 30.8984 59.5664C32.1484 58.9284 33.7891 58.6094 35.8203 58.6094C37.8776 58.6094 39.5312 58.9219 40.7812 59.5469C42.0443 60.1719 42.6758 61.0508 42.6758 62.1836C42.6758 63.2904 42.0378 64.1562 40.7617 64.7812C39.4987 65.4062 37.8516 65.7188 35.8203 65.7188C33.776 65.7188 32.1289 65.4062 30.8789 64.7812C29.6419 64.1693 29.0234 63.3034 29.0234 62.1836ZM31.3672 62.1836C31.3672 62.7435 31.7513 63.1732 32.5195 63.4727C33.3008 63.7591 34.401 63.9023 35.8203 63.9023C37.1745 63.9023 38.2617 63.7526 39.082 63.4531C39.9154 63.1536 40.332 62.7305 40.332 62.1836C40.332 61.5977 39.9219 61.1549 39.1016 60.8555C38.2943 60.556 37.2005 60.4062 35.8203 60.4062C34.4141 60.4062 33.3203 60.5625 32.5391 60.875C31.7578 61.1745 31.3672 61.6107 31.3672 62.1836ZM35.625 56.1484V54.3711H40.0977V52.1055H36.0742V50.3086H40.0977V47.418H42.2656V58.7266H40.0977V56.1484H35.625ZM26.4648 56.8711C28.4701 56.0898 30.1302 55.1133 31.4453 53.9414C32.7734 52.7565 33.5352 51.5326 33.7305 50.2695H27.5586V48.375H36.1719C36.1589 52.75 33.3398 56.0964 27.7148 58.4141L26.4648 56.8711ZM49.1602 65.6992V59.9961H61.9727V65.6992H49.1602ZM51.3086 64H59.8047V61.6953H51.3086V64ZM56.875 55.6016V53.6484H59.7852V47.418H61.9531V59.1758H59.7852V55.6016H56.875ZM48.5352 49.4688V47.8086H55.1562V49.4688H48.5352ZM46.0742 52.3203V50.6797H57.0508V52.3203H46.0742ZM46.8164 55.9141C46.8164 55.0286 47.2982 54.3516 48.2617 53.8828C49.2253 53.4141 50.4167 53.1797 51.8359 53.1797C53.2422 53.1797 54.4271 53.4206 55.3906 53.9023C56.3542 54.3711 56.8359 55.0482 56.8359 55.9336C56.8359 56.806 56.3542 57.4831 55.3906 57.9648C54.4401 58.4466 53.2552 58.6875 51.8359 58.6875C50.4297 58.6875 49.2383 58.4466 48.2617 57.9648C47.2982 57.4701 46.8164 56.7865 46.8164 55.9141ZM49.043 55.9141C49.043 56.3177 49.3099 56.6302 49.8438 56.8516C50.3776 57.0599 51.0417 57.1641 51.8359 57.1641C52.6042 57.1641 53.2552 57.0599 53.7891 56.8516C54.3229 56.6302 54.5898 56.3177 54.5898 55.9141C54.5898 55.4974 54.3294 55.1914 53.8086 54.9961C53.2878 54.8008 52.6302 54.7031 51.8359 54.7031C51.0286 54.7031 50.3581 54.8073 49.8242 55.0156C49.3034 55.2109 49.043 55.5104 49.043 55.9141ZM78.2617 65.7773V47.418H80.4492V54.8984H83.3008V57.0078H80.4492V65.7773H78.2617ZM65.2148 61.6562C65.8008 61.2526 66.3477 60.8034 66.8555 60.3086C67.3633 59.8138 67.8841 59.2083 68.418 58.4922C68.9518 57.776 69.375 56.9427 69.6875 55.9922C70.013 55.0286 70.1758 54.013 70.1758 52.9453V51.1484H66.2891V49.1367H76.2695V51.1484H72.3828V52.8867C72.3828 53.8242 72.5391 54.7487 72.8516 55.6602C73.1771 56.5586 73.5872 57.3659 74.082 58.082C74.5898 58.7852 75.0911 59.3971 75.5859 59.918C76.0807 60.4258 76.582 60.8685 77.0898 61.2461L75.6055 62.6133C74.8372 62.0273 74.0299 61.2201 73.1836 60.1914C72.3372 59.1628 71.7188 58.1732 71.3281 57.2227C71.0156 58.1862 70.3906 59.2539 69.4531 60.4258C68.5286 61.5846 67.6302 62.457 66.7578 63.043L65.2148 61.6562ZM98.9648 65.7773V47.418H101.172V65.7773H98.9648ZM86.1523 55.5234C86.1523 53.401 86.569 51.6823 87.4023 50.3672C88.2487 49.0391 89.4076 48.375 90.8789 48.375C92.3503 48.375 93.5026 49.0391 94.3359 50.3672C95.1693 51.6823 95.5859 53.401 95.5859 55.5234C95.5859 57.6589 95.1693 59.3906 94.3359 60.7188C93.5156 62.0339 92.3633 62.6914 90.8789 62.6914C89.3945 62.6914 88.2357 62.0339 87.4023 60.7188C86.569 59.3906 86.1523 57.6589 86.1523 55.5234ZM88.3594 55.5234C88.3594 57.0469 88.5677 58.2969 88.9844 59.2734C89.401 60.25 90.0326 60.7383 90.8789 60.7383C91.7253 60.7383 92.3503 60.25 92.7539 59.2734C93.1706 58.2839 93.3789 57.0339 93.3789 55.5234C93.3789 54.5339 93.3008 53.6615 93.1445 52.9062C92.9883 52.151 92.7148 51.5326 92.3242 51.0508C91.9466 50.556 91.4648 50.3086 90.8789 50.3086C90.4362 50.3086 90.0456 50.4518 89.707 50.7383C89.3815 51.0117 89.1211 51.3958 88.9258 51.8906C88.7435 52.3854 88.6003 52.9388 88.4961 53.5508C88.4049 54.1497 88.3594 54.8073 88.3594 55.5234ZM117.441 65.7773V47.418H119.629V54.7031H122.559V56.8125H119.629V65.7773H117.441ZM106.211 61.7148V49.1367H114.727V51.0117H108.34V59.8203H108.77C111.257 59.8203 113.737 59.6576 116.211 59.332V61.0898C113.346 61.5065 110.247 61.7148 106.914 61.7148H106.211ZM125.547 64V61.207H128.555V64H125.547Z" fill="#010101"/>
</svg>
