<svg width="300" height="85" viewBox="0 0 300 85" fill="none" xmlns="http://www.w3.org/2000/svg">
<rect x="1.5" y="1.5" width="297" height="82" fill="#FFFF00"/>
<rect x="1.5" y="1.5" width="297" height="82" stroke="black" stroke-width="3"/>
<path d="M28.5938 37.2695V31.7422H30.7422V35.3945H41.6797V37.2695H28.5938ZM25.8594 30.5312V28.6367H33.7695V25.2969H35.957V28.6367H43.7305V30.5312H25.8594ZM28.5938 25.8242V19.7109H30.7422V24.0469H41.6211V25.8242H28.5938ZM48.1641 37.25V32.0547H50.332V35.3945H61.3281V37.25H48.1641ZM45.5469 30.2578V28.4023H63.418V30.2578H55.9766V33.7344H53.8281V30.2578H45.5469ZM48.1641 26.4297V20.0234H60.8984V26.4297H48.1641ZM50.332 24.7109H58.75V21.7422H50.332V24.7109ZM83.9062 37.7773V19.418H86.1133V37.7773H83.9062ZM70.8008 33.793C73.0404 32.3997 74.8112 30.7266 76.1133 28.7734C77.4284 26.8203 78.099 24.9258 78.125 23.0898H71.8164V21.1367H80.4102C80.4102 26.944 77.7083 31.6315 72.3047 35.1992L70.8008 33.793ZM100.176 36.957V19.9258H102.129V26.8203H104.238V19.418H106.328V37.7773H104.238V28.8906H102.129V36.957H100.176ZM89.6875 33.5977C90.1693 33.194 90.6185 32.7448 91.0352 32.25C91.4518 31.7552 91.875 31.1497 92.3047 30.4336C92.7474 29.7174 93.099 28.8906 93.3594 27.9531C93.6198 27.0156 93.75 26.0326 93.75 25.0039V23.1484H90.5859V21.2148H99.1211V23.1484H95.957V24.9648C95.957 25.8633 96.0872 26.7552 96.3477 27.6406C96.6081 28.526 96.9466 29.3203 97.3633 30.0234C97.793 30.7135 98.2031 31.306 98.5938 31.8008C98.9844 32.2956 99.388 32.7383 99.8047 33.1289L98.2422 34.3789C97.6562 33.819 97.0378 33.0768 96.3867 32.1523C95.7487 31.2148 95.2604 30.3294 94.9219 29.4961C94.6615 30.3685 94.1667 31.3385 93.4375 32.4062C92.7083 33.474 91.9987 34.2878 91.3086 34.8477L89.6875 33.5977ZM128.418 37.7773V19.418H130.625V37.7773H128.418ZM115.605 27.5234C115.605 25.401 116.022 23.6823 116.855 22.3672C117.702 21.0391 118.861 20.375 120.332 20.375C121.803 20.375 122.956 21.0391 123.789 22.3672C124.622 23.6823 125.039 25.401 125.039 27.5234C125.039 29.6589 124.622 31.3906 123.789 32.7188C122.969 34.0339 121.816 34.6914 120.332 34.6914C118.848 34.6914 117.689 34.0339 116.855 32.7188C116.022 31.3906 115.605 29.6589 115.605 27.5234ZM117.812 27.5234C117.812 29.0469 118.021 30.2969 118.438 31.2734C118.854 32.25 119.486 32.7383 120.332 32.7383C121.178 32.7383 121.803 32.25 122.207 31.2734C122.624 30.2839 122.832 29.0339 122.832 27.5234C122.832 26.5339 122.754 25.6615 122.598 24.9062C122.441 24.151 122.168 23.5326 121.777 23.0508C121.4 22.556 120.918 22.3086 120.332 22.3086C119.889 22.3086 119.499 22.4518 119.16 22.7383C118.835 23.0117 118.574 23.3958 118.379 23.8906C118.197 24.3854 118.053 24.9388 117.949 25.5508C117.858 26.1497 117.812 26.8073 117.812 27.5234ZM134.062 33.6172V31.8594H151.934V33.6172H144.141V37.7773H141.934V33.6172H134.062ZM138.789 21.1953V19.5156H147.266V21.1953H138.789ZM135.566 24.125V22.4844H150.488V24.125H135.566ZM136.641 27.7188C136.641 26.8073 137.233 26.1367 138.418 25.707C139.616 25.2643 141.152 25.043 143.027 25.043C143.9 25.043 144.707 25.0951 145.449 25.1992C146.191 25.3034 146.862 25.4596 147.461 25.668C148.06 25.8633 148.529 26.1367 148.867 26.4883C149.219 26.8398 149.395 27.25 149.395 27.7188C149.395 28.6172 148.796 29.2943 147.598 29.75C146.413 30.1927 144.889 30.4141 143.027 30.4141C141.816 30.4141 140.749 30.3294 139.824 30.1602C138.9 29.9909 138.138 29.6979 137.539 29.2812C136.94 28.8646 136.641 28.3438 136.641 27.7188ZM139.062 27.7188C139.062 28.526 140.384 28.9297 143.027 28.9297C145.671 28.9297 146.992 28.526 146.992 27.7188C146.992 26.9375 145.671 26.5469 143.027 26.5469C140.384 26.5469 139.062 26.9375 139.062 27.7188ZM158.711 24.457C158.997 23.2201 159.538 22.25 160.332 21.5469C161.139 20.8307 162.181 20.4727 163.457 20.4727C164.798 20.4727 165.898 20.8568 166.758 21.625C167.617 22.3932 168.047 23.4479 168.047 24.7891C168.047 26.2995 167.266 27.8034 165.703 29.3008C165.56 29.431 165.26 29.7174 164.805 30.1602C164.349 30.6029 164.049 30.8958 163.906 31.0391C163.776 31.1693 163.542 31.4102 163.203 31.7617C162.878 32.1003 162.643 32.3737 162.5 32.582C162.357 32.7773 162.188 33.0182 161.992 33.3047C161.81 33.5911 161.654 33.8776 161.523 34.1641H168.008V36H158.828C158.828 35.4271 158.926 34.8542 159.121 34.2812C159.329 33.7083 159.564 33.2005 159.824 32.7578C160.085 32.3151 160.462 31.8138 160.957 31.2539C161.452 30.681 161.868 30.2253 162.207 29.8867C162.559 29.5352 163.04 29.0729 163.652 28.5C163.796 28.3698 163.9 28.2721 163.965 28.207C165.15 27.0872 165.742 25.9349 165.742 24.75C165.742 23.9818 165.534 23.3828 165.117 22.9531C164.701 22.5234 164.141 22.3086 163.438 22.3086C162.708 22.3086 162.103 22.5495 161.621 23.0312C161.152 23.513 160.814 24.1771 160.605 25.0234L158.711 24.457ZM172.422 28.4219C172.422 29.6068 172.5 30.6354 172.656 31.5078C172.812 32.3802 173.092 33.1029 173.496 33.6758C173.913 34.2357 174.434 34.5156 175.059 34.5156C175.54 34.5156 175.951 34.3529 176.289 34.0273C176.641 33.6888 176.908 33.2201 177.09 32.6211C177.285 32.0221 177.422 31.3841 177.5 30.707C177.591 30.0169 177.637 29.2552 177.637 28.4219C177.637 27.5625 177.591 26.7747 177.5 26.0586C177.409 25.3424 177.259 24.6979 177.051 24.125C176.855 23.5521 176.582 23.1094 176.23 22.7969C175.892 22.4714 175.488 22.3086 175.02 22.3086C174.408 22.3086 173.9 22.5951 173.496 23.168C173.092 23.7279 172.812 24.4505 172.656 25.3359C172.5 26.2083 172.422 27.237 172.422 28.4219ZM170.117 28.4219C170.117 26.9505 170.26 25.6745 170.547 24.5938C170.833 23.513 171.224 22.6862 171.719 22.1133C172.214 21.5404 172.734 21.1237 173.281 20.8633C173.828 20.6029 174.408 20.4727 175.02 20.4727C176.582 20.4727 177.793 21.1693 178.652 22.5625C179.512 23.9427 179.941 25.8958 179.941 28.4219C179.941 30.8307 179.525 32.7578 178.691 34.2031C177.871 35.6354 176.66 36.3516 175.059 36.3516C174.447 36.3516 173.867 36.2214 173.32 35.9609C172.773 35.7005 172.253 35.2839 171.758 34.7109C171.263 34.138 170.866 33.3112 170.566 32.2305C170.267 31.1497 170.117 29.8802 170.117 28.4219ZM181.719 24.457C182.005 23.2201 182.546 22.25 183.34 21.5469C184.147 20.8307 185.189 20.4727 186.465 20.4727C187.806 20.4727 188.906 20.8568 189.766 21.625C190.625 22.3932 191.055 23.4479 191.055 24.7891C191.055 26.2995 190.273 27.8034 188.711 29.3008C188.568 29.431 188.268 29.7174 187.812 30.1602C187.357 30.6029 187.057 30.8958 186.914 31.0391C186.784 31.1693 186.549 31.4102 186.211 31.7617C185.885 32.1003 185.651 32.3737 185.508 32.582C185.365 32.7773 185.195 33.0182 185 33.3047C184.818 33.5911 184.661 33.8776 184.531 34.1641H191.016V36H181.836C181.836 35.4271 181.934 34.8542 182.129 34.2812C182.337 33.7083 182.572 33.2005 182.832 32.7578C183.092 32.3151 183.47 31.8138 183.965 31.2539C184.46 30.681 184.876 30.2253 185.215 29.8867C185.566 29.5352 186.048 29.0729 186.66 28.5C186.803 28.3698 186.908 28.2721 186.973 28.207C188.158 27.0872 188.75 25.9349 188.75 24.75C188.75 23.9818 188.542 23.3828 188.125 22.9531C187.708 22.5234 187.148 22.3086 186.445 22.3086C185.716 22.3086 185.111 22.5495 184.629 23.0312C184.16 23.513 183.822 24.1771 183.613 25.0234L181.719 24.457ZM192.734 30.9609L199.512 20.668H201.445V30.9219H203.418V32.7578H201.445V36.1562H199.219V32.7578H192.734V30.9609ZM194.863 30.9219H199.219V26.1562C199.219 25.4141 199.245 24.6979 199.297 24.0078H199.219C199.076 24.2682 198.854 24.6328 198.555 25.1016C198.268 25.5703 198.105 25.8372 198.066 25.9023L194.863 30.9219ZM208.535 37.25V31.2734H210.684V35.3359H221.582V37.25H208.535ZM213.496 26.4688V24.6719H218.887V22.8164H213.496V20.9609H218.887V19.418H221.055V32.7188H218.887V26.4688H213.496ZM206.367 30.0625V20.3359H208.516V28.1875H209.121C211.738 28.1875 214.408 28.0312 217.129 27.7188V29.4961C214.03 29.8737 210.788 30.0625 207.402 30.0625H206.367ZM233.008 37.4453V32.6406H235.176V35.6094H246.113V37.4453H233.008ZM240.527 30.2969V28.5H243.457V25.9219H240.312V24.125H243.457V19.418H245.625V33.4414H243.457V30.2969H240.527ZM232.227 21.6836V19.9648H238.711V21.6836H232.227ZM229.844 24.75V23.0508H240.547V24.75H229.844ZM230.547 28.7148C230.547 27.7773 231.016 27.0417 231.953 26.5078C232.904 25.974 234.069 25.707 235.449 25.707C236.829 25.707 237.988 25.974 238.926 26.5078C239.863 27.0417 240.332 27.7773 240.332 28.7148C240.332 29.6523 239.863 30.388 238.926 30.9219C238.001 31.4557 236.842 31.7227 235.449 31.7227C234.056 31.7227 232.891 31.4557 231.953 30.9219C231.016 30.388 230.547 29.6523 230.547 28.7148ZM232.754 28.7148C232.754 29.1576 233.014 29.5026 233.535 29.75C234.056 29.9974 234.694 30.1211 235.449 30.1211C236.178 30.1211 236.803 30.0039 237.324 29.7695C237.858 29.5221 238.125 29.1706 238.125 28.7148C238.125 28.2591 237.865 27.9141 237.344 27.6797C236.836 27.4323 236.204 27.3086 235.449 27.3086C234.681 27.3086 234.036 27.4323 233.516 27.6797C233.008 27.9271 232.754 28.2721 232.754 28.7148ZM259.277 36.957V19.9258H261.23V26.8203H263.34V19.418H265.43V37.7773H263.34V28.8906H261.23V36.957H259.277ZM248.789 33.5977C249.271 33.194 249.72 32.7448 250.137 32.25C250.553 31.7552 250.977 31.1497 251.406 30.4336C251.849 29.7174 252.201 28.8906 252.461 27.9531C252.721 27.0156 252.852 26.0326 252.852 25.0039V23.1484H249.688V21.2148H258.223V23.1484H255.059V24.9648C255.059 25.8633 255.189 26.7552 255.449 27.6406C255.71 28.526 256.048 29.3203 256.465 30.0234C256.895 30.7135 257.305 31.306 257.695 31.8008C258.086 32.2956 258.49 32.7383 258.906 33.1289L257.344 34.3789C256.758 33.819 256.139 33.0768 255.488 32.1523C254.85 31.2148 254.362 30.3294 254.023 29.4961C253.763 30.3685 253.268 31.3385 252.539 32.4062C251.81 33.474 251.1 34.2878 250.41 34.8477L248.789 33.5977ZM268.652 39.3203L270.43 33.207H273.047L270.391 39.3203H268.652ZM28.8086 61.6562V59.8789H41.4062V65.875H39.2383V61.6562H28.8086ZM39.2383 58.9805V47.418H41.4062V52.418H43.8672V54.3906H41.4062V58.9805H39.2383ZM26.8945 57.6719V48.2188H28.9844V51.1094H34.0234V48.2188H36.1328V57.6719H26.8945ZM28.9844 55.875H34.0234V52.8672H28.9844V55.875ZM58.4375 65.7773V47.418H60.6445V54.9961H63.5938V57.0859H60.6445V65.7773H58.4375ZM44.9805 61.832C45.6185 61.3242 46.2174 60.7383 46.7773 60.0742C47.3503 59.3971 47.8906 58.6224 48.3984 57.75C48.9193 56.8646 49.3294 55.862 49.6289 54.7422C49.9284 53.6094 50.0781 52.444 50.0781 51.2461V48.4336H52.2461V51.1875C52.2461 52.3594 52.4089 53.5052 52.7344 54.625C53.0599 55.7318 53.4831 56.7148 54.0039 57.5742C54.5378 58.4206 55.0521 59.1432 55.5469 59.7422C56.0417 60.3281 56.543 60.8424 57.0508 61.2852L55.4492 62.6328C54.7331 62.0208 53.9323 61.0964 53.0469 59.8594C52.1745 58.6094 51.5625 57.4375 51.2109 56.3438C50.8984 57.5026 50.293 58.7266 49.3945 60.0156C48.5091 61.3047 47.6042 62.3594 46.6797 63.1797L44.9805 61.832ZM65.3711 62.6328V60.7773H67.2266C72.1224 60.7773 75.7487 60.6211 78.1055 60.3086V62.1055C75.2279 62.457 71.5951 62.6328 67.207 62.6328H65.3711ZM69.0039 61.5V54.2344H71.1914V61.5H69.0039ZM78.5938 65.7773V47.418H80.8008V55.3086H83.4766V57.2227H80.8008V65.7773H78.5938ZM66.6211 50.8945V49.0781H76.4062C76.4062 52.4245 76.1003 55.543 75.4883 58.4336H73.3789C73.9909 55.6471 74.2969 53.1341 74.2969 50.8945H66.6211ZM88.0859 62.1641C88.0859 61.0443 88.7109 60.1719 89.9609 59.5469C91.2109 58.9219 92.8581 58.6094 94.9023 58.6094C96.9596 58.6094 98.6133 58.9219 99.8633 59.5469C101.126 60.1719 101.758 61.0443 101.758 62.1641C101.758 63.2708 101.12 64.1367 99.8438 64.7617C98.5807 65.3867 96.9336 65.6992 94.9023 65.6992C92.8451 65.6992 91.1914 65.3867 89.9414 64.7617C88.7044 64.1497 88.0859 63.2839 88.0859 62.1641ZM90.4297 62.1641C90.4297 62.724 90.8203 63.1536 91.6016 63.4531C92.3958 63.7526 93.4961 63.9023 94.9023 63.9023C96.2565 63.9023 97.3438 63.7526 98.1641 63.4531C98.9974 63.1406 99.4141 62.7109 99.4141 62.1641C99.4141 61.5911 99.0104 61.1615 98.2031 60.875C97.3958 60.5755 96.2956 60.4258 94.9023 60.4258C93.4961 60.4258 92.3958 60.5755 91.6016 60.875C90.8203 61.1615 90.4297 61.5911 90.4297 62.1641ZM95.4883 53.8828V51.9492H99.1602V47.418H101.328V58.6289H99.1602V53.8828H95.4883ZM85.1953 57.0078C85.7161 56.7865 86.2305 56.526 86.7383 56.2266C87.2461 55.9271 87.7734 55.556 88.3203 55.1133C88.8672 54.6706 89.3099 54.1562 89.6484 53.5703C90 52.9714 90.1888 52.3529 90.2148 51.7148V50.2109H86.2695V48.375H96.3867V50.2109H92.5586V51.6562C92.5716 52.112 92.6953 52.5677 92.9297 53.0234C93.1641 53.4661 93.444 53.8568 93.7695 54.1953C94.0951 54.5208 94.4727 54.8398 94.9023 55.1523C95.332 55.4648 95.7161 55.7188 96.0547 55.9141C96.4062 56.0964 96.7448 56.2591 97.0703 56.4023L95.8789 57.8281C95.1237 57.5156 94.3034 57.0469 93.418 56.4219C92.5456 55.7839 91.8815 55.1328 91.4258 54.4688C91.0091 55.1979 90.3125 55.9531 89.3359 56.7344C88.3594 57.5156 87.3958 58.0951 86.4453 58.4727L85.1953 57.0078ZM107.188 65.4844V60.7578H117.891V59.332H107.07V57.5938H120.039V62.2812H109.336V63.7461H120.469V65.4844H107.188ZM104.609 56.2266V54.4883H122.48V56.2266H104.609ZM106.602 50.4062C106.602 49.7422 106.934 49.1888 107.598 48.7461C108.275 48.3034 109.121 47.9909 110.137 47.8086C111.152 47.6133 112.305 47.5156 113.594 47.5156C115.573 47.5156 117.233 47.7565 118.574 48.2383C119.915 48.7201 120.586 49.4427 120.586 50.4062C120.586 51.3698 119.915 52.0924 118.574 52.5742C117.233 53.056 115.573 53.2969 113.594 53.2969C112.292 53.2969 111.133 53.2057 110.117 53.0234C109.102 52.8281 108.262 52.5091 107.598 52.0664C106.934 51.6237 106.602 51.0703 106.602 50.4062ZM109.004 50.4062C109.004 51.2396 110.534 51.6562 113.594 51.6562C116.654 51.6562 118.184 51.2396 118.184 50.4062C118.184 49.9635 117.741 49.6445 116.855 49.4492C115.97 49.2409 114.883 49.1367 113.594 49.1367C112.344 49.1367 111.263 49.2344 110.352 49.4297C109.453 49.625 109.004 49.9505 109.004 50.4062ZM143.223 65.7773V47.418H145.43V65.7773H143.223ZM129.57 61.6172C130.182 61.2135 130.749 60.7643 131.27 60.2695C131.803 59.7747 132.344 59.1693 132.891 58.4531C133.451 57.737 133.893 56.9036 134.219 55.9531C134.544 55.0026 134.707 53.9935 134.707 52.9258V51.1484H130.684V49.1367H140.938V51.1484H136.914V52.8477C136.914 53.7852 137.077 54.7096 137.402 55.6211C137.741 56.5195 138.171 57.3268 138.691 58.043C139.212 58.7461 139.727 59.3581 140.234 59.8789C140.755 60.3867 141.276 60.8294 141.797 61.207L140.332 62.5938C139.538 62.0078 138.698 61.194 137.812 60.1523C136.927 59.1107 136.283 58.1081 135.879 57.1445C135.553 58.1211 134.902 59.1953 133.926 60.3672C132.949 61.5391 132.005 62.418 131.094 63.0039L129.57 61.6172ZM158.691 64.957V47.9258H160.645V54.7031H163.164V47.418H165.273V65.7773H163.164V56.7734H160.645V64.957H158.691ZM150.41 61.6562V48.9805H152.559V59.7227H152.852C154.219 59.7227 155.911 59.5859 157.93 59.3125V61.1289C156.81 61.2982 155.521 61.4284 154.062 61.5195C152.617 61.6107 151.582 61.6562 150.957 61.6562H150.41ZM168.555 63.5508V61.6562H175.02V55.0352H177.207V61.6562H186.426V63.5508H168.555ZM170.918 50.9531V49H184.297C184.297 52.5026 183.932 55.9076 183.203 59.2148H181.035C181.374 57.7956 181.641 56.3112 181.836 54.7617C182.031 53.2122 182.129 51.9427 182.129 50.9531H170.918ZM195.41 64.293C196.27 63.7461 197.031 63.0365 197.695 62.1641C198.372 61.2786 198.711 60.4453 198.711 59.6641V58.8242H200.84V59.5078C200.84 60.224 201.1 60.9596 201.621 61.7148C202.142 62.4701 202.656 63.0234 203.164 63.375C203.698 62.9974 204.219 62.444 204.727 61.7148C205.234 60.9727 205.488 60.237 205.488 59.5078V58.8242H207.617V59.6445C207.617 60.4518 207.949 61.3047 208.613 62.2031C209.29 63.0885 210.052 63.7917 210.898 64.3125L209.609 65.6602C209.01 65.2826 208.424 64.7812 207.852 64.1562C207.292 63.5312 206.868 62.9388 206.582 62.3789C206.27 62.9518 205.775 63.5703 205.098 64.2344C204.421 64.8984 203.776 65.3672 203.164 65.6406C202.578 65.3802 201.94 64.9115 201.25 64.2344C200.573 63.5703 200.078 62.9583 199.766 62.3984C199.479 62.9323 199.069 63.5052 198.535 64.1172C198.014 64.7292 197.435 65.2435 196.797 65.6602L195.41 64.293ZM207.363 58.2969V47.418H209.531V58.2969H207.363ZM194.219 52.5352C194.219 51.168 194.674 50.0677 195.586 49.2344C196.51 48.388 197.702 47.9648 199.16 47.9648C200.605 47.9648 201.79 48.388 202.715 49.2344C203.652 50.0677 204.121 51.168 204.121 52.5352C204.121 53.9154 203.659 55.0286 202.734 55.875C201.81 56.7083 200.618 57.125 199.16 57.125C197.702 57.125 196.51 56.7083 195.586 55.875C194.674 55.0286 194.219 53.9154 194.219 52.5352ZM196.406 52.5352C196.406 53.3685 196.66 54.0521 197.168 54.5859C197.676 55.1198 198.34 55.3867 199.16 55.3867C199.98 55.3867 200.645 55.1198 201.152 54.5859C201.66 54.0391 201.914 53.3555 201.914 52.5352C201.914 51.7279 201.66 51.0573 201.152 50.5234C200.645 49.9766 199.98 49.7031 199.16 49.7031C198.353 49.7031 197.689 49.9766 197.168 50.5234C196.66 51.0573 196.406 51.7279 196.406 52.5352ZM225.645 65.7773V47.418H227.832V54.7031H230.762V56.8125H227.832V65.7773H225.645ZM214.414 61.7148V49.1367H222.93V51.0117H216.543V59.8203H216.973C219.46 59.8203 221.94 59.6576 224.414 59.332V61.0898C221.549 61.5065 218.451 61.7148 215.117 61.7148H214.414ZM233.75 64V61.207H236.758V64H233.75Z" fill="#010101"/>
</svg>
