<svg width="250" height="85" viewBox="0 0 250 85" fill="none" xmlns="http://www.w3.org/2000/svg">
<rect x="1.5" y="1.5" width="247" height="82" fill="#FFFF00"/>
<rect x="1.5" y="1.5" width="247" height="82" stroke="black" stroke-width="3"/>
<path d="M29.5312 37.5039V29.8672H31.6602V31.7617H40.1562V29.8672H42.2852V37.5039H29.5312ZM31.6602 35.668H40.1562V33.4609H31.6602V35.668ZM36.1328 24.9844V23.0508H40.0977V19.418H42.2656V29.2422H40.0977V24.9844H36.1328ZM25.7031 28.0508C26.3281 27.7383 26.9076 27.3997 27.4414 27.0352C27.9883 26.6576 28.5352 26.2018 29.082 25.668C29.6419 25.1211 30.0846 24.4961 30.4102 23.793C30.7357 23.0768 30.8984 22.3216 30.8984 21.5273V19.8672H33.0273V21.4883C33.0273 22.2044 33.1836 22.901 33.4961 23.5781C33.8086 24.2552 34.2122 24.8542 34.707 25.375C35.2148 25.8958 35.7227 26.3451 36.2305 26.7227C36.7513 27.1003 37.2786 27.4193 37.8125 27.6797L36.5625 29.125C35.7943 28.7734 34.9414 28.2005 34.0039 27.4062C33.0664 26.612 32.3893 25.8307 31.9727 25.0625C31.543 25.9089 30.8398 26.7487 29.8633 27.582C28.8997 28.4023 27.9427 29.0469 26.9922 29.5156L25.7031 28.0508ZM48.8477 33.1484V31.293H61.9141V37.9141H59.7656V33.1484H48.8477ZM59.7461 30.4727V19.418H61.9141V30.4727H59.7461ZM45.4297 28.2656C46.0807 27.9401 46.6992 27.5625 47.2852 27.1328C47.8841 26.7031 48.457 26.2083 49.0039 25.6484C49.5508 25.0885 49.987 24.4505 50.3125 23.7344C50.638 23.0182 50.8008 22.276 50.8008 21.5078V20.043H52.9492V21.4688C52.9492 22.0677 53.0664 22.6667 53.3008 23.2656C53.5482 23.8516 53.8542 24.3659 54.2188 24.8086C54.5833 25.2513 55 25.681 55.4688 26.0977C55.9505 26.5013 56.3997 26.8398 56.8164 27.1133C57.2331 27.3737 57.6497 27.6081 58.0664 27.8164L56.7969 29.3008C56.0156 28.9232 55.1237 28.3177 54.1211 27.4844C53.1185 26.651 52.3828 25.8177 51.9141 24.9844C51.4453 25.8828 50.7161 26.7747 49.7266 27.6602C48.737 28.5326 47.7474 29.2227 46.7578 29.7305L45.4297 28.2656ZM67.9688 34.1055C67.9688 32.9727 68.5807 32.0872 69.8047 31.4492C71.0286 30.7982 72.6367 30.4727 74.6289 30.4727C76.6471 30.4727 78.2617 30.7917 79.4727 31.4297C80.6966 32.0677 81.3086 32.9596 81.3086 34.1055C81.3086 35.2383 80.6901 36.1237 79.4531 36.7617C78.2161 37.4128 76.6081 37.7318 74.6289 37.7188C72.6237 37.7057 71.0091 37.3802 69.7852 36.7422C68.5742 36.1172 67.9688 35.2383 67.9688 34.1055ZM70.3125 34.1055C70.3125 34.6784 70.6901 35.1211 71.4453 35.4336C72.2135 35.7461 73.2747 35.9023 74.6289 35.9023C75.931 35.9023 76.9792 35.7461 77.7734 35.4336C78.5807 35.1081 78.9844 34.6654 78.9844 34.1055C78.9844 33.5195 78.5938 33.0703 77.8125 32.7578C77.0312 32.4453 75.9701 32.2891 74.6289 32.2891C73.2878 32.2891 72.2331 32.4518 71.4648 32.7773C70.6966 33.0898 70.3125 33.5326 70.3125 34.1055ZM78.6133 30.5312V19.418H80.7812V24.2617H83.125V26.2148H80.7812V30.5312H78.6133ZM65.1953 28.7148C65.7682 28.4544 66.3216 28.1549 66.8555 27.8164C67.4023 27.4648 67.9297 27.0677 68.4375 26.625C68.9583 26.1693 69.3815 25.668 69.707 25.1211C70.0456 24.5612 70.2409 23.9948 70.293 23.4219V22.25H66.2695V20.4141H76.6602V22.25H72.7148V23.3438C72.806 24.2943 73.3008 25.1862 74.1992 26.0195C75.1107 26.8398 76.1263 27.5169 77.2461 28.0508L76.0156 29.4766C75.1953 29.125 74.3424 28.6042 73.457 27.9141C72.5846 27.224 71.9531 26.5469 71.5625 25.8828C71.1458 26.612 70.4753 27.3802 69.5508 28.1875C68.6263 28.9818 67.6042 29.6393 66.4844 30.1602L65.1953 28.7148ZM95.3516 36.957V19.9258H97.3242V26.6641H99.4141V19.418H101.504V37.7773H99.4141V28.7148H97.3242V36.957H95.3516ZM85.7227 27.582C85.7227 25.4857 86.0612 23.7995 86.7383 22.5234C87.4284 21.2344 88.4245 20.5898 89.7266 20.5898C91.0156 20.5898 91.9987 21.2344 92.6758 22.5234C93.3659 23.7995 93.7109 25.4857 93.7109 27.582C93.7109 29.6914 93.3724 31.3841 92.6953 32.6602C92.0182 33.9362 91.0286 34.5742 89.7266 34.5742C88.4115 34.5742 87.4154 33.9362 86.7383 32.6602C86.0612 31.3841 85.7227 29.6914 85.7227 27.582ZM87.8711 27.582C87.8711 30.9544 88.4896 32.6406 89.7266 32.6406C90.9505 32.6406 91.5625 30.9544 91.5625 27.582C91.5625 24.1966 90.9505 22.5039 89.7266 22.5039C88.4896 22.5039 87.8711 24.1966 87.8711 27.582ZM119.102 37.7773V19.418H121.191V37.7773H119.102ZM112.363 28.4805V26.4102H115.273V19.9258H117.246V36.957H115.273V28.4805H112.363ZM105.43 27.5625C105.43 25.4531 105.762 23.7539 106.426 22.4648C107.09 21.1628 108.066 20.5117 109.355 20.5117C110.632 20.5117 111.602 21.1628 112.266 22.4648C112.943 23.7539 113.281 25.4531 113.281 27.5625C113.281 29.6849 112.949 31.3906 112.285 32.6797C111.621 33.9688 110.645 34.6133 109.355 34.6133C108.053 34.6133 107.07 33.9753 106.406 32.6992C105.755 31.4102 105.43 29.6979 105.43 27.5625ZM107.578 27.5625C107.578 30.974 108.171 32.6797 109.355 32.6797C110.54 32.6797 111.133 30.974 111.133 27.5625C111.133 24.151 110.54 22.4453 109.355 22.4453C108.171 22.4453 107.578 24.151 107.578 27.5625ZM139.121 36.957V19.9258H141.094V26.7227H143.574V19.418H145.684V37.7773H143.574V28.793H141.094V36.957H139.121ZM130.801 33.6367V21.1953H137.637V23.0703H132.91V31.7812H133.164C134.531 31.7812 136.25 31.6641 138.32 31.4297V33.168C135.911 33.4805 133.574 33.6367 131.309 33.6367H130.801ZM152.266 37.4258V32.582H154.434V35.5898H164.961V37.4258H152.266ZM162.227 33.3828V19.418H164.414V25.8242H166.836V27.7773H164.414V33.3828H162.227ZM151.641 21.7617V20.043H158.457V21.7617H151.641ZM149.102 24.7695V23.0703H160.43V24.7695H149.102ZM149.863 28.5977C149.863 27.6732 150.358 26.957 151.348 26.4492C152.337 25.9414 153.568 25.6875 155.039 25.6875C156.497 25.6875 157.721 25.9479 158.711 26.4688C159.701 26.9766 160.195 27.6927 160.195 28.6172C160.195 29.5417 159.701 30.2643 158.711 30.7852C157.734 31.293 156.51 31.5469 155.039 31.5469C153.568 31.5469 152.337 31.2865 151.348 30.7656C150.358 30.2448 149.863 29.5221 149.863 28.5977ZM152.129 28.5977C152.129 29.0404 152.409 29.3789 152.969 29.6133C153.529 29.8477 154.219 29.9648 155.039 29.9648C155.833 29.9648 156.517 29.8477 157.09 29.6133C157.663 29.3789 157.949 29.0404 157.949 28.5977C157.949 28.1419 157.669 27.8034 157.109 27.582C156.562 27.3607 155.872 27.25 155.039 27.25C154.206 27.25 153.509 27.3672 152.949 27.6016C152.402 27.8229 152.129 28.1549 152.129 28.5977ZM28.5938 65.2695V59.7422H30.7422V63.3945H41.6797V65.2695H28.5938ZM25.8594 58.5312V56.6367H33.7695V53.2969H35.957V56.6367H43.7305V58.5312H25.8594ZM28.5938 53.8242V47.7109H30.7422V52.0469H41.6211V53.8242H28.5938ZM48.1641 65.25V60.0547H50.332V63.3945H61.3281V65.25H48.1641ZM45.5469 58.2578V56.4023H63.418V58.2578H55.9766V61.7344H53.8281V58.2578H45.5469ZM48.1641 54.4297V48.0234H60.8984V54.4297H48.1641ZM50.332 52.7109H58.75V49.7422H50.332V52.7109ZM67.8125 65.4844V60.7578H78.5156V59.332H67.6953V57.5938H80.6641V62.2812H69.9609V63.7461H81.0938V65.4844H67.8125ZM65.2344 56.2266V54.4883H83.1055V56.2266H65.2344ZM67.2266 50.4062C67.2266 49.7422 67.5586 49.1888 68.2227 48.7461C68.8997 48.3034 69.7461 47.9909 70.7617 47.8086C71.7773 47.6133 72.9297 47.5156 74.2188 47.5156C76.1979 47.5156 77.8581 47.7565 79.1992 48.2383C80.5404 48.7201 81.2109 49.4427 81.2109 50.4062C81.2109 51.3698 80.5404 52.0924 79.1992 52.5742C77.8581 53.056 76.1979 53.2969 74.2188 53.2969C72.9167 53.2969 71.7578 53.2057 70.7422 53.0234C69.7266 52.8281 68.8867 52.5091 68.2227 52.0664C67.5586 51.6237 67.2266 51.0703 67.2266 50.4062ZM69.6289 50.4062C69.6289 51.2396 71.1589 51.6562 74.2188 51.6562C77.2786 51.6562 78.8086 51.2396 78.8086 50.4062C78.8086 49.9635 78.3659 49.6445 77.4805 49.4492C76.5951 49.2409 75.5078 49.1367 74.2188 49.1367C72.9688 49.1367 71.888 49.2344 70.9766 49.4297C70.0781 49.625 69.6289 49.9505 69.6289 50.4062ZM103.594 65.7773V47.418H105.801V65.7773H103.594ZM90.4883 61.793C92.7279 60.3997 94.4987 58.7266 95.8008 56.7734C97.1159 54.8203 97.7865 52.9258 97.8125 51.0898H91.5039V49.1367H100.098C100.098 54.944 97.3958 59.6315 91.9922 63.1992L90.4883 61.793ZM119.863 64.957V47.9258H121.816V54.8203H123.926V47.418H126.016V65.7773H123.926V56.8906H121.816V64.957H119.863ZM109.375 61.5977C109.857 61.194 110.306 60.7448 110.723 60.25C111.139 59.7552 111.562 59.1497 111.992 58.4336C112.435 57.7174 112.786 56.8906 113.047 55.9531C113.307 55.0156 113.438 54.0326 113.438 53.0039V51.1484H110.273V49.2148H118.809V51.1484H115.645V52.9648C115.645 53.8633 115.775 54.7552 116.035 55.6406C116.296 56.526 116.634 57.3203 117.051 58.0234C117.48 58.7135 117.891 59.306 118.281 59.8008C118.672 60.2956 119.076 60.7383 119.492 61.1289L117.93 62.3789C117.344 61.819 116.725 61.0768 116.074 60.1523C115.436 59.2148 114.948 58.3294 114.609 57.4961C114.349 58.3685 113.854 59.3385 113.125 60.4062C112.396 61.474 111.686 62.2878 110.996 62.8477L109.375 61.5977ZM132.578 65.4258V60.582H134.746V63.5898H145.273V65.4258H132.578ZM142.539 61.3828V47.418H144.727V53.8242H147.148V55.7773H144.727V61.3828H142.539ZM131.953 49.7617V48.043H138.77V49.7617H131.953ZM129.414 52.7695V51.0703H140.742V52.7695H129.414ZM130.176 56.5977C130.176 55.6732 130.671 54.957 131.66 54.4492C132.65 53.9414 133.88 53.6875 135.352 53.6875C136.81 53.6875 138.034 53.9479 139.023 54.4688C140.013 54.9766 140.508 55.6927 140.508 56.6172C140.508 57.5417 140.013 58.2643 139.023 58.7852C138.047 59.293 136.823 59.5469 135.352 59.5469C133.88 59.5469 132.65 59.2865 131.66 58.7656C130.671 58.2448 130.176 57.5221 130.176 56.5977ZM132.441 56.5977C132.441 57.0404 132.721 57.3789 133.281 57.6133C133.841 57.8477 134.531 57.9648 135.352 57.9648C136.146 57.9648 136.829 57.8477 137.402 57.6133C137.975 57.3789 138.262 57.0404 138.262 56.5977C138.262 56.1419 137.982 55.8034 137.422 55.582C136.875 55.3607 136.185 55.25 135.352 55.25C134.518 55.25 133.822 55.3672 133.262 55.6016C132.715 55.8229 132.441 56.1549 132.441 56.5977ZM166.836 65.7773V47.418H169.043V54.8008H171.875V56.9102H169.043V65.7773H166.836ZM154.922 62.2812V48.7266H157.031V53.3945H161.582V48.7266H163.691V62.2812H154.922ZM157.031 60.3281H161.582V55.3867H157.031V60.3281ZM180.605 64.293C181.465 63.7461 182.227 63.0365 182.891 62.1641C183.568 61.2786 183.906 60.4453 183.906 59.6641V58.8242H186.035V59.5078C186.035 60.224 186.296 60.9596 186.816 61.7148C187.337 62.4701 187.852 63.0234 188.359 63.375C188.893 62.9974 189.414 62.444 189.922 61.7148C190.43 60.9727 190.684 60.237 190.684 59.5078V58.8242H192.812V59.6445C192.812 60.4518 193.145 61.3047 193.809 62.2031C194.486 63.0885 195.247 63.7917 196.094 64.3125L194.805 65.6602C194.206 65.2826 193.62 64.7812 193.047 64.1562C192.487 63.5312 192.064 62.9388 191.777 62.3789C191.465 62.9518 190.97 63.5703 190.293 64.2344C189.616 64.8984 188.971 65.3672 188.359 65.6406C187.773 65.3802 187.135 64.9115 186.445 64.2344C185.768 63.5703 185.273 62.9583 184.961 62.3984C184.674 62.9323 184.264 63.5052 183.73 64.1172C183.21 64.7292 182.63 65.2435 181.992 65.6602L180.605 64.293ZM192.559 58.2969V47.418H194.727V58.2969H192.559ZM179.414 52.5352C179.414 51.168 179.87 50.0677 180.781 49.2344C181.706 48.388 182.897 47.9648 184.355 47.9648C185.801 47.9648 186.986 48.388 187.91 49.2344C188.848 50.0677 189.316 51.168 189.316 52.5352C189.316 53.9154 188.854 55.0286 187.93 55.875C187.005 56.7083 185.814 57.125 184.355 57.125C182.897 57.125 181.706 56.7083 180.781 55.875C179.87 55.0286 179.414 53.9154 179.414 52.5352ZM181.602 52.5352C181.602 53.3685 181.855 54.0521 182.363 54.5859C182.871 55.1198 183.535 55.3867 184.355 55.3867C185.176 55.3867 185.84 55.1198 186.348 54.5859C186.855 54.0391 187.109 53.3555 187.109 52.5352C187.109 51.7279 186.855 51.0573 186.348 50.5234C185.84 49.9766 185.176 49.7031 184.355 49.7031C183.548 49.7031 182.884 49.9766 182.363 50.5234C181.855 51.0573 181.602 51.7279 181.602 52.5352ZM210.84 65.7773V47.418H213.027V54.7031H215.957V56.8125H213.027V65.7773H210.84ZM199.609 61.7148V49.1367H208.125V51.0117H201.738V59.8203H202.168C204.655 59.8203 207.135 59.6576 209.609 59.332V61.0898C206.745 61.5065 203.646 61.7148 200.312 61.7148H199.609ZM218.945 64V61.207H221.953V64H218.945Z" fill="#010101"/>
</svg>
